<?xml version="1.0" encoding="utf-8"?>
<!-- Generator: Adobe Illustrator 19.0.0, SVG Export Plug-In . SVG Version: 6.00 Build 0)  -->
<svg version="1.1" xmlns="http://www.w3.org/2000/svg" xmlns:xlink="http://www.w3.org/1999/xlink" x="0px" y="0px" width="1400px"
	 height="980px" viewBox="0 0 1400 980" enable-background="new 0 0 1400 980" xml:space="preserve">
<g id="Layer_2">
	<rect id="XMLID_2_" fill-rule="evenodd" clip-rule="evenodd" fill="#15213F" width="1400" height="980"/>
</g>
<g id="Layer_1">
	<path id="XMLID_5_" fill-rule="evenodd" clip-rule="evenodd" fill="#002932" d="M266.7,276.3C266.7,276.3,266.7,276.3,266.7,276.3
		C266.7,276.3,266.7,276.3,266.7,276.3L266.7,276.3z M266.8,276.4C266.8,276.4,266.8,276.4,266.8,276.4
		C266.8,276.4,266.8,276.4,266.8,276.4L266.8,276.4z M266.9,276.4C266.9,276.5,266.9,276.5,266.9,276.4
		C266.9,276.5,266.9,276.5,266.9,276.4L266.9,276.4z M267,276.5C267,276.5,267,276.5,267,276.5C267,276.5,267,276.5,267,276.5
		L267,276.5z M267.1,276.6C267.1,276.6,267.1,276.6,267.1,276.6C267.1,276.6,267.1,276.6,267.1,276.6L267.1,276.6z M267.2,276.7
		C267.2,276.7,267.2,276.7,267.2,276.7C267.2,276.7,267.2,276.7,267.2,276.7L267.2,276.7z M267.2,276.7
		C267.2,276.7,267.3,276.7,267.2,276.7C267.3,276.7,267.2,276.7,267.2,276.7L267.2,276.7z M267.3,276.8
		C267.4,276.8,267.4,276.8,267.3,276.8C267.4,276.8,267.4,276.8,267.3,276.8L267.3,276.8z M267.4,276.8c0.1,0,0.1,0.1,0.2,0.1
		C267.5,276.9,267.5,276.9,267.4,276.8L267.4,276.8z M267.6,277c0.1,0,0.1,0.1,0.2,0.1C267.7,277,267.7,277,267.6,277L267.6,277z
		 M267.8,277.1c0.1,0,0.1,0.1,0.2,0.1C267.9,277.2,267.8,277.1,267.8,277.1L267.8,277.1z M268,277.2c0.1,0,0.1,0.1,0.2,0.1
		C268.1,277.3,268,277.3,268,277.2L268,277.2z M268.2,277.4c0.1,0,0.1,0.1,0.2,0.1C268.3,277.5,268.2,277.4,268.2,277.4L268.2,277.4
		z M268.4,277.5c0.1,0,0.1,0.1,0.2,0.1C268.5,277.6,268.4,277.5,268.4,277.5L268.4,277.5z M268.5,277.6c0,0,0.1,0.1,0.1,0.1
		C268.6,277.7,268.6,277.7,268.5,277.6L268.5,277.6z M268.7,277.7C268.7,277.7,268.7,277.7,268.7,277.7
		C268.7,277.7,268.7,277.7,268.7,277.7L268.7,277.7z M268.7,277.8C268.8,277.8,268.8,277.8,268.7,277.8
		C268.8,277.8,268.8,277.8,268.7,277.8L268.7,277.8z M268.9,277.9C268.9,277.9,268.9,277.9,268.9,277.9
		C268.9,277.9,268.9,277.9,268.9,277.9L268.9,277.9z M268.9,277.9C269,277.9,269,277.9,268.9,277.9C269,277.9,269,277.9,268.9,277.9
		L268.9,277.9z M269,278C269.1,278,269.1,278,269,278C269.1,278,269.1,278,269,278L269,278z M269.1,278.1
		C269.1,278.1,269.2,278.1,269.1,278.1C269.2,278.1,269.1,278.1,269.1,278.1L269.1,278.1z M269.2,278.1
		C269.2,278.1,269.3,278.1,269.2,278.1C269.3,278.1,269.2,278.1,269.2,278.1L269.2,278.1z M269.3,278.2
		C269.3,278.2,269.3,278.2,269.3,278.2C269.3,278.2,269.3,278.2,269.3,278.2L269.3,278.2z M269.4,278.3
		C269.4,278.3,269.4,278.3,269.4,278.3C269.4,278.3,269.4,278.3,269.4,278.3L269.4,278.3z M269.6,278.4
		C269.6,278.4,269.6,278.4,269.6,278.4C269.6,278.4,269.6,278.4,269.6,278.4L269.6,278.4z"/>
	<path id="XMLID_30_" fill-rule="evenodd" clip-rule="evenodd" fill="#FFFFFF" d="M252.6,155.5c0-2.5-2-4.6-4.6-4.6s-4.6,2-4.6,4.6
		c0,2.5,2,4.6,4.6,4.6S252.6,158,252.6,155.5L252.6,155.5z"/>
	<path id="XMLID_31_" fill-rule="evenodd" clip-rule="evenodd" fill="#FFFFFF" d="M216.8,457.1c0-2.5-2-4.6-4.6-4.6s-4.6,2-4.6,4.6
		c0,2.5,2,4.6,4.6,4.6S216.8,459.7,216.8,457.1L216.8,457.1z"/>
	<path id="XMLID_32_" fill-rule="evenodd" clip-rule="evenodd" fill="#FFFFFF" d="M144.9,382.1c0-1.3-1.1-2.4-2.4-2.4
		s-2.4,1.1-2.4,2.4c0,1.3,1.1,2.4,2.4,2.4S144.9,383.4,144.9,382.1L144.9,382.1z"/>
	<path id="XMLID_34_" fill-rule="evenodd" clip-rule="evenodd" fill="#FFFFFF" d="M410.5,320.9c0-1.3-1.1-2.4-2.4-2.4
		s-2.4,1.1-2.4,2.4c0,1.3,1.1,2.4,2.4,2.4S410.5,322.2,410.5,320.9L410.5,320.9z"/>
	<path id="XMLID_35_" fill-rule="evenodd" clip-rule="evenodd" fill="#FFFFFF" d="M386.5,400.1c0-1.3-1.1-2.4-2.4-2.4
		c-1.3,0-2.4,1.1-2.4,2.4c0,1.3,1.1,2.4,2.4,2.4C385.4,402.5,386.5,401.4,386.5,400.1L386.5,400.1z"/>
	<path id="XMLID_36_" fill-rule="evenodd" clip-rule="evenodd" fill="#FFFFFF" d="M55.1,45.7c0-1.3-1.1-2.4-2.4-2.4
		c-1.3,0-2.4,1.1-2.4,2.4s1.1,2.4,2.4,2.4C54.1,48.1,55.1,47,55.1,45.7L55.1,45.7z"/>
	<path id="XMLID_37_" fill-rule="evenodd" clip-rule="evenodd" fill="#FFFFFF" d="M231.4,73c0-1.3-1.1-2.4-2.4-2.4s-2.4,1.1-2.4,2.4
		c0,1.3,1.1,2.4,2.4,2.4S231.4,74.3,231.4,73L231.4,73z"/>
	<path id="XMLID_38_" fill-rule="evenodd" clip-rule="evenodd" fill="#FFFFFF" d="M241.6,354.1c0-1.3-1.1-2.4-2.4-2.4
		c-1.3,0-2.4,1.1-2.4,2.4c0,1.3,1.1,2.4,2.4,2.4C240.5,356.5,241.6,355.4,241.6,354.1L241.6,354.1z"/>
	<path id="XMLID_39_" fill-rule="evenodd" clip-rule="evenodd" fill="#FFFFFF" d="M375.3,110.4c0-1.3-1.1-2.4-2.4-2.4
		c-1.3,0-2.4,1.1-2.4,2.4c0,1.3,1.1,2.4,2.4,2.4C374.2,112.7,375.3,111.7,375.3,110.4L375.3,110.4z"/>
	<path id="XMLID_40_" fill-rule="evenodd" clip-rule="evenodd" fill="#FFFFFF" d="M65.6,445.6c0-1.3-1.1-2.4-2.4-2.4
		c-1.3,0-2.4,1.1-2.4,2.4c0,1.3,1.1,2.4,2.4,2.4C64.5,448,65.6,446.9,65.6,445.6L65.6,445.6z"/>
	<path id="XMLID_41_" fill-rule="evenodd" clip-rule="evenodd" fill="#FFFFFF" d="M150.8,377.3c0-0.8-0.7-1.5-1.5-1.5
		c-0.8,0-1.5,0.7-1.5,1.5c0,0.8,0.7,1.5,1.5,1.5C150.1,378.8,150.8,378.1,150.8,377.3L150.8,377.3z"/>
	<path id="XMLID_42_" fill-rule="evenodd" clip-rule="evenodd" fill="#FFFFFF" d="M256.5,270.6c0-1.3-1.1-2.4-2.4-2.4
		s-2.4,1.1-2.4,2.4c0,1.3,1.1,2.4,2.4,2.4S256.5,271.9,256.5,270.6L256.5,270.6z"/>
	<path id="XMLID_43_" fill-rule="evenodd" clip-rule="evenodd" fill="#FFFFFF" d="M399.6,305.2c0-1.3-1.1-2.4-2.4-2.4
		s-2.4,1.1-2.4,2.4c0,1.3,1.1,2.4,2.4,2.4S399.6,306.5,399.6,305.2L399.6,305.2z"/>
	<path id="XMLID_44_" fill-rule="evenodd" clip-rule="evenodd" fill="#FFFFFF" d="M262.3,265.9c0-0.8-0.7-1.5-1.5-1.5
		c-0.8,0-1.5,0.7-1.5,1.5c0,0.8,0.7,1.5,1.5,1.5C261.7,267.3,262.3,266.7,262.3,265.9L262.3,265.9z"/>
	<path id="XMLID_45_" fill-rule="evenodd" clip-rule="evenodd" fill="#FFFFFF" d="M44.5,103c0-1.3-1.1-2.4-2.4-2.4s-2.4,1.1-2.4,2.4
		c0,1.3,1.1,2.4,2.4,2.4S44.5,104.4,44.5,103L44.5,103z"/>
	<path id="XMLID_46_" fill-rule="evenodd" clip-rule="evenodd" fill="#FFFFFF" d="M50.4,98.3c0-0.8-0.7-1.5-1.5-1.5
		c-0.8,0-1.5,0.7-1.5,1.5c0,0.8,0.7,1.5,1.5,1.5C49.7,99.8,50.4,99.1,50.4,98.3L50.4,98.3z"/>
	<path id="XMLID_47_" fill-rule="evenodd" clip-rule="evenodd" fill="#FFFFFF" d="M367,48.1c0-1.3-1.1-2.4-2.4-2.4s-2.4,1.1-2.4,2.4
		s1.1,2.4,2.4,2.4S367,49.4,367,48.1L367,48.1z"/>
	<path id="XMLID_48_" fill-rule="evenodd" clip-rule="evenodd" fill="#FFFFFF" d="M372.9,43.3c0-0.8-0.7-1.5-1.5-1.5
		c-0.8,0-1.5,0.7-1.5,1.5c0,0.8,0.7,1.5,1.5,1.5C372.2,44.8,372.9,44.1,372.9,43.3L372.9,43.3z"/>
	<path id="XMLID_49_" fill-rule="evenodd" clip-rule="evenodd" fill="#FFFFFF" d="M62.3,431c0-0.8-0.7-1.5-1.5-1.5
		c-0.8,0-1.5,0.7-1.5,1.5c0,0.8,0.7,1.5,1.5,1.5C61.7,432.5,62.3,431.9,62.3,431L62.3,431z"/>
	<path id="XMLID_52_" fill-rule="evenodd" clip-rule="evenodd" fill="#002932" d="M559.2,398.7C559.2,398.7,559.2,398.7,559.2,398.7
		C559.2,398.7,559.2,398.7,559.2,398.7L559.2,398.7z M559.3,398.8C559.3,398.8,559.3,398.8,559.3,398.8
		C559.3,398.8,559.3,398.8,559.3,398.8L559.3,398.8z M559.4,398.9C559.4,398.9,559.4,398.9,559.4,398.9
		C559.4,398.9,559.4,398.9,559.4,398.9L559.4,398.9z M559.5,398.9C559.5,399,559.5,399,559.5,398.9C559.5,399,559.5,399,559.5,398.9
		L559.5,398.9z M559.6,399C559.6,399,559.6,399,559.6,399C559.6,399,559.6,399,559.6,399L559.6,399z M559.7,399.1
		C559.7,399.1,559.7,399.1,559.7,399.1C559.7,399.1,559.7,399.1,559.7,399.1L559.7,399.1z M559.8,399.1
		C559.8,399.1,559.8,399.2,559.8,399.1C559.8,399.2,559.8,399.1,559.8,399.1L559.8,399.1z M559.9,399.2
		C559.9,399.2,559.9,399.2,559.9,399.2C559.9,399.2,559.9,399.2,559.9,399.2L559.9,399.2z M559.9,399.3c0.1,0,0.1,0.1,0.2,0.1
		C560,399.3,560,399.3,559.9,399.3L559.9,399.3z M560.1,399.4c0.1,0,0.1,0.1,0.2,0.1C560.2,399.5,560.2,399.4,560.1,399.4
		L560.1,399.4z M560.3,399.5c0.1,0,0.1,0.1,0.2,0.1C560.4,399.6,560.4,399.6,560.3,399.5L560.3,399.5z M560.5,399.7
		c0.1,0,0.1,0.1,0.2,0.1C560.6,399.7,560.5,399.7,560.5,399.7L560.5,399.7z M560.7,399.8c0.1,0,0.1,0.1,0.2,0.1
		C560.8,399.9,560.7,399.8,560.7,399.8L560.7,399.8z M560.9,399.9c0.1,0,0.1,0.1,0.2,0.1C561,400,560.9,400,560.9,399.9L560.9,399.9
		z M561.1,400.1c0,0,0.1,0.1,0.1,0.1C561.1,400.1,561.1,400.1,561.1,400.1L561.1,400.1z M561.2,400.1
		C561.2,400.2,561.2,400.2,561.2,400.1C561.2,400.2,561.2,400.2,561.2,400.1L561.2,400.1z M561.3,400.2
		C561.3,400.2,561.3,400.2,561.3,400.2C561.3,400.2,561.3,400.2,561.3,400.2L561.3,400.2z M561.4,400.3
		C561.4,400.3,561.4,400.3,561.4,400.3C561.4,400.3,561.4,400.3,561.4,400.3L561.4,400.3z M561.4,400.3
		C561.5,400.4,561.5,400.4,561.4,400.3C561.5,400.4,561.5,400.4,561.4,400.3L561.4,400.3z M561.6,400.4
		C561.6,400.4,561.6,400.4,561.6,400.4C561.6,400.4,561.6,400.4,561.6,400.4L561.6,400.4z M561.6,400.5
		C561.7,400.5,561.7,400.5,561.6,400.5C561.7,400.5,561.7,400.5,561.6,400.5L561.6,400.5z M561.8,400.6
		C561.8,400.6,561.8,400.6,561.8,400.6C561.8,400.6,561.8,400.6,561.8,400.6L561.8,400.6z M561.9,400.6
		C561.9,400.6,561.9,400.6,561.9,400.6C561.9,400.6,561.9,400.6,561.9,400.6L561.9,400.6z M561.9,400.7
		C562,400.7,562,400.7,561.9,400.7C562,400.7,562,400.7,561.9,400.7L561.9,400.7z M562.2,400.8C562.2,400.8,562.2,400.8,562.2,400.8
		C562.2,400.8,562.2,400.8,562.2,400.8L562.2,400.8z"/>
	<path id="XMLID_78_" fill-rule="evenodd" clip-rule="evenodd" fill="#FFFFFF" d="M509.3,579.6c0-2.5-2.1-4.6-4.6-4.6
		c-2.5,0-4.6,2-4.6,4.6s2,4.6,4.6,4.6C507.3,584.1,509.3,582.1,509.3,579.6L509.3,579.6z"/>
	<path id="XMLID_79_" fill-rule="evenodd" clip-rule="evenodd" fill="#FFFFFF" d="M437.4,504.5c0-1.3-1.1-2.4-2.4-2.4
		c-1.3,0-2.4,1.1-2.4,2.4c0,1.3,1.1,2.4,2.4,2.4C436.3,506.9,437.4,505.8,437.4,504.5L437.4,504.5z"/>
	<path id="XMLID_80_" fill-rule="evenodd" clip-rule="evenodd" fill="#FFFFFF" d="M471.6,452.8c0-1.3-1.1-2.4-2.4-2.4
		s-2.4,1.1-2.4,2.4c0,1.3,1.1,2.4,2.4,2.4S471.6,454.1,471.6,452.8L471.6,452.8z"/>
	<path id="XMLID_81_" fill-rule="evenodd" clip-rule="evenodd" fill="#FFFFFF" d="M703,443.3c0-1.3-1.1-2.4-2.4-2.4
		s-2.4,1.1-2.4,2.4c0,1.3,1.1,2.4,2.4,2.4S703,444.7,703,443.3L703,443.3z"/>
	<path id="XMLID_377_" fill-rule="evenodd" clip-rule="evenodd" fill="#FFFFFF" d="M681.4,587.3c0-1.3-1.1-2.4-2.4-2.4
		s-2.4,1.1-2.4,2.4s1.1,2.4,2.4,2.4S681.4,588.6,681.4,587.3L681.4,587.3z"/>
	<path id="XMLID_82_" fill-rule="evenodd" clip-rule="evenodd" fill="#FFFFFF" d="M679,522.5c0-1.3-1.1-2.4-2.4-2.4
		c-1.3,0-2.4,1.1-2.4,2.4s1.1,2.4,2.4,2.4C677.9,524.9,679,523.8,679,522.5L679,522.5z"/>
	<path id="XMLID_83_" fill-rule="evenodd" clip-rule="evenodd" fill="#FFFFFF" d="M347.7,168.1c0-1.3-1.1-2.4-2.4-2.4
		c-1.3,0-2.4,1.1-2.4,2.4c0,1.3,1.1,2.4,2.4,2.4C346.6,170.5,347.7,169.4,347.7,168.1L347.7,168.1z"/>
	<path id="XMLID_85_" fill-rule="evenodd" clip-rule="evenodd" fill="#FFFFFF" d="M534.1,476.6c0-1.3-1.1-2.4-2.4-2.4
		c-1.3,0-2.4,1.1-2.4,2.4c0,1.3,1.1,2.4,2.4,2.4C533,478.9,534.1,477.9,534.1,476.6L534.1,476.6z"/>
	<path id="XMLID_86_" fill-rule="evenodd" clip-rule="evenodd" fill="#FFFFFF" d="M667.8,232.8c0-1.3-1.1-2.4-2.4-2.4
		c-1.3,0-2.4,1.1-2.4,2.4c0,1.3,1.1,2.4,2.4,2.4C666.7,235.2,667.8,234.1,667.8,232.8L667.8,232.8z"/>
	<path id="XMLID_87_" fill-rule="evenodd" clip-rule="evenodd" fill="#FFFFFF" d="M358.1,568c0-1.3-1.1-2.4-2.4-2.4
		c-1.3,0-2.4,1.1-2.4,2.4s1.1,2.4,2.4,2.4C357.1,570.4,358.1,569.3,358.1,568L358.1,568z"/>
	<path id="XMLID_88_" fill-rule="evenodd" clip-rule="evenodd" fill="#FFFFFF" d="M443.3,499.7c0-0.8-0.7-1.5-1.5-1.5
		c-0.8,0-1.5,0.7-1.5,1.5c0,0.8,0.7,1.5,1.5,1.5C442.6,501.2,443.3,500.5,443.3,499.7L443.3,499.7z"/>
	<path id="XMLID_89_" fill-rule="evenodd" clip-rule="evenodd" fill="#FFFFFF" d="M549,393c0-1.3-1.1-2.4-2.4-2.4
		c-1.3,0-2.4,1.1-2.4,2.4c0,1.3,1.1,2.4,2.4,2.4C547.9,395.4,549,394.4,549,393L549,393z"/>
	<path id="XMLID_90_" fill-rule="evenodd" clip-rule="evenodd" fill="#FFFFFF" d="M692.2,427.6c0-1.3-1.1-2.4-2.4-2.4
		c-1.3,0-2.4,1.1-2.4,2.4c0,1.3,1.1,2.4,2.4,2.4C691.1,430,692.2,428.9,692.2,427.6L692.2,427.6z"/>
	<path id="XMLID_91_" fill-rule="evenodd" clip-rule="evenodd" fill="#FFFFFF" d="M554.9,388.3c0-0.8-0.7-1.5-1.5-1.5
		c-0.8,0-1.5,0.7-1.5,1.5c0,0.8,0.7,1.5,1.5,1.5C554.2,389.8,554.9,389.1,554.9,388.3L554.9,388.3z"/>
	<path id="XMLID_92_" fill-rule="evenodd" clip-rule="evenodd" fill="#FFFFFF" d="M337,225.5c0-1.3-1.1-2.4-2.4-2.4
		s-2.4,1.1-2.4,2.4c0,1.3,1.1,2.4,2.4,2.4S337,226.8,337,225.5L337,225.5z"/>
	<path id="XMLID_93_" fill-rule="evenodd" clip-rule="evenodd" fill="#FFFFFF" d="M342.9,220.7c0-0.8-0.7-1.5-1.5-1.5
		s-1.5,0.7-1.5,1.5s0.7,1.5,1.5,1.5S342.9,221.5,342.9,220.7L342.9,220.7z"/>
	<path id="XMLID_94_" fill-rule="evenodd" clip-rule="evenodd" fill="#FFFFFF" d="M659.5,170.5c0-1.3-1.1-2.4-2.4-2.4
		c-1.3,0-2.4,1.1-2.4,2.4c0,1.3,1.1,2.4,2.4,2.4C658.5,172.9,659.5,171.8,659.5,170.5L659.5,170.5z"/>
	<path id="XMLID_95_" fill-rule="evenodd" clip-rule="evenodd" fill="#FFFFFF" d="M665.4,165.7c0-0.8-0.7-1.5-1.5-1.5
		c-0.8,0-1.5,0.7-1.5,1.5c0,0.8,0.7,1.5,1.5,1.5C664.7,167.2,665.4,166.5,665.4,165.7L665.4,165.7z"/>
	<path id="XMLID_96_" fill-rule="evenodd" clip-rule="evenodd" fill="#FFFFFF" d="M354.9,553.5c0-0.8-0.7-1.5-1.5-1.5
		c-0.8,0-1.5,0.7-1.5,1.5c0,0.8,0.7,1.5,1.5,1.5C354.2,555,354.9,554.3,354.9,553.5L354.9,553.5z"/>
	<path id="XMLID_99_" fill-rule="evenodd" clip-rule="evenodd" fill="#002932" d="M952.5,264C952.5,264,952.5,264,952.5,264
		C952.5,264,952.5,264,952.5,264L952.5,264z M952.6,264.1C952.6,264.1,952.6,264.1,952.6,264.1C952.6,264.1,952.6,264.1,952.6,264.1
		L952.6,264.1z M952.7,264.1C952.7,264.1,952.7,264.1,952.7,264.1C952.7,264.1,952.7,264.1,952.7,264.1L952.7,264.1z M952.8,264.2
		C952.8,264.2,952.8,264.2,952.8,264.2C952.8,264.2,952.8,264.2,952.8,264.2L952.8,264.2z M952.9,264.3
		C952.9,264.3,952.9,264.3,952.9,264.3C952.9,264.3,952.9,264.3,952.9,264.3L952.9,264.3z M953,264.3C953,264.4,953,264.4,953,264.3
		C953,264.4,953,264.4,953,264.3L953,264.3z M953.1,264.4C953.1,264.4,953.1,264.4,953.1,264.4C953.1,264.4,953.1,264.4,953.1,264.4
		L953.1,264.4z M953.2,264.5C953.2,264.5,953.2,264.5,953.2,264.5C953.2,264.5,953.2,264.5,953.2,264.5L953.2,264.5z M953.2,264.5
		c0.1,0,0.1,0.1,0.2,0.1C953.3,264.6,953.3,264.6,953.2,264.5L953.2,264.5z M953.4,264.7c0.1,0,0.1,0.1,0.2,0.1
		C953.5,264.7,953.5,264.7,953.4,264.7L953.4,264.7z M953.6,264.8c0.1,0,0.1,0.1,0.2,0.1C953.7,264.9,953.7,264.8,953.6,264.8
		L953.6,264.8z M953.8,264.9c0.1,0,0.1,0.1,0.2,0.1C953.9,265,953.8,265,953.8,264.9L953.8,264.9z M954,265.1c0.1,0,0.1,0.1,0.2,0.1
		C954.1,265.2,954,265.1,954,265.1L954,265.1z M954.2,265.2c0.1,0,0.1,0.1,0.2,0.1C954.3,265.3,954.2,265.2,954.2,265.2L954.2,265.2
		z M954.4,265.3c0,0,0.1,0.1,0.1,0.1C954.4,265.4,954.4,265.4,954.4,265.3L954.4,265.3z M954.5,265.4
		C954.5,265.4,954.5,265.4,954.5,265.4C954.5,265.4,954.5,265.4,954.5,265.4L954.5,265.4z M954.6,265.5
		C954.6,265.5,954.6,265.5,954.6,265.5C954.6,265.5,954.6,265.5,954.6,265.5L954.6,265.5z M954.7,265.6
		C954.7,265.6,954.7,265.6,954.7,265.6C954.7,265.6,954.7,265.6,954.7,265.6L954.7,265.6z M954.7,265.6
		C954.8,265.6,954.8,265.6,954.7,265.6C954.8,265.6,954.8,265.6,954.7,265.6L954.7,265.6z M954.9,265.7
		C954.9,265.7,954.9,265.7,954.9,265.7C954.9,265.7,954.9,265.7,954.9,265.7L954.9,265.7z M954.9,265.8
		C955,265.8,955,265.8,954.9,265.8C955,265.8,955,265.8,954.9,265.8L954.9,265.8z M955.1,265.8C955.1,265.8,955.1,265.8,955.1,265.8
		C955.1,265.8,955.1,265.8,955.1,265.8L955.1,265.8z M955.2,265.9C955.2,265.9,955.2,265.9,955.2,265.9
		C955.2,265.9,955.2,265.9,955.2,265.9L955.2,265.9z M955.2,266C955.3,266,955.3,266,955.2,266C955.3,266,955.3,266,955.2,266
		L955.2,266z M955.5,266.1C955.5,266.1,955.5,266.1,955.5,266.1C955.5,266.1,955.5,266.1,955.5,266.1L955.5,266.1z"/>
	<path id="XMLID_156_" fill-rule="evenodd" clip-rule="evenodd" fill="#002932" d="M801.2,219C801.2,219,801.2,219,801.2,219
		C801.2,219,801.2,219,801.2,219L801.2,219z M801.3,219C801.3,219.1,801.3,219.1,801.3,219C801.3,219.1,801.3,219.1,801.3,219
		L801.3,219z M801.4,219.1C801.4,219.1,801.4,219.1,801.4,219.1C801.4,219.1,801.4,219.1,801.4,219.1L801.4,219.1z M801.5,219.2
		C801.5,219.2,801.5,219.2,801.5,219.2C801.5,219.2,801.5,219.2,801.5,219.2L801.5,219.2z M801.6,219.2
		C801.6,219.2,801.6,219.3,801.6,219.2C801.6,219.3,801.6,219.2,801.6,219.2L801.6,219.2z M801.7,219.3
		C801.7,219.3,801.7,219.3,801.7,219.3C801.7,219.3,801.7,219.3,801.7,219.3L801.7,219.3z M801.8,219.4
		C801.8,219.4,801.8,219.4,801.8,219.4C801.8,219.4,801.8,219.4,801.8,219.4L801.8,219.4z M801.9,219.4
		C801.9,219.5,801.9,219.5,801.9,219.4C801.9,219.5,801.9,219.5,801.9,219.4L801.9,219.4z M802,219.5c0.1,0,0.1,0.1,0.2,0.1
		C802.1,219.6,802,219.5,802,219.5L802,219.5z M802.1,219.6c0.1,0,0.1,0.1,0.2,0.1C802.3,219.7,802.2,219.7,802.1,219.6L802.1,219.6
		z M802.3,219.8c0.1,0,0.1,0.1,0.2,0.1C802.4,219.8,802.4,219.8,802.3,219.8L802.3,219.8z M802.5,219.9c0.1,0,0.1,0.1,0.2,0.1
		C802.6,220,802.6,219.9,802.5,219.9L802.5,219.9z M802.7,220c0.1,0,0.1,0.1,0.2,0.1C802.8,220.1,802.8,220.1,802.7,220L802.7,220z
		 M802.9,220.2c0.1,0,0.1,0.1,0.2,0.1C803,220.2,803,220.2,802.9,220.2L802.9,220.2z M803.1,220.3c0,0,0.1,0.1,0.1,0.1
		C803.2,220.4,803.1,220.3,803.1,220.3L803.1,220.3z M803.2,220.4C803.2,220.4,803.2,220.4,803.2,220.4
		C803.2,220.4,803.2,220.4,803.2,220.4L803.2,220.4z M803.3,220.4C803.3,220.5,803.3,220.5,803.3,220.4
		C803.3,220.5,803.3,220.5,803.3,220.4L803.3,220.4z M803.4,220.5C803.4,220.5,803.4,220.5,803.4,220.5
		C803.4,220.5,803.4,220.5,803.4,220.5L803.4,220.5z M803.5,220.6C803.5,220.6,803.5,220.6,803.5,220.6
		C803.5,220.6,803.5,220.6,803.5,220.6L803.5,220.6z M803.6,220.7C803.6,220.7,803.6,220.7,803.6,220.7
		C803.6,220.7,803.6,220.7,803.6,220.7L803.6,220.7z M803.7,220.7C803.7,220.7,803.7,220.7,803.7,220.7
		C803.7,220.7,803.7,220.7,803.7,220.7L803.7,220.7z M803.8,220.8C803.8,220.8,803.8,220.8,803.8,220.8
		C803.8,220.8,803.8,220.8,803.8,220.8L803.8,220.8z M803.9,220.9C803.9,220.9,803.9,220.9,803.9,220.9
		C803.9,220.9,803.9,220.9,803.9,220.9L803.9,220.9z M804,220.9C804,220.9,804,220.9,804,220.9C804,220.9,804,220.9,804,220.9
		L804,220.9z M804.2,221.1C804.2,221.1,804.2,221.1,804.2,221.1C804.2,221.1,804.2,221.1,804.2,221.1L804.2,221.1z"/>
	<path id="XMLID_124_" fill-rule="evenodd" clip-rule="evenodd" fill="#FFFFFF" d="M938.4,143.2c0-2.5-2-4.6-4.6-4.6
		c-2.5,0-4.6,2-4.6,4.6s2,4.6,4.6,4.6C936.3,147.7,938.4,145.7,938.4,143.2L938.4,143.2z"/>
	<path id="XMLID_375_" fill-rule="evenodd" clip-rule="evenodd" fill="#FFFFFF" d="M627.5,676.5c0-2.5-2-4.6-4.6-4.6
		c-2.5,0-4.6,2-4.6,4.6s2,4.6,4.6,4.6C625.4,681.1,627.5,679,627.5,676.5L627.5,676.5z"/>
	<path id="XMLID_152_" fill-rule="evenodd" clip-rule="evenodd" fill="#FFFFFF" d="M1296.1,197.8c0-2.5-2-4.6-4.6-4.6
		c-2.5,0-4.6,2-4.6,4.6c0,2.5,2,4.6,4.6,4.6C1294,202.4,1296.1,200.3,1296.1,197.8L1296.1,197.8z"/>
	<path id="XMLID_155_" fill-rule="evenodd" clip-rule="evenodd" fill="#FFFFFF" d="M766.5,210.7c0-2.5-2-4.6-4.6-4.6
		c-2.5,0-4.6,2-4.6,4.6c0,2.5,2,4.6,4.6,4.6C764.5,215.3,766.5,213.2,766.5,210.7L766.5,210.7z"/>
	<path id="XMLID_378_" fill-rule="evenodd" clip-rule="evenodd" fill="#FFFFFF" d="M705.2,777.9c0-2.5-2-4.6-4.6-4.6
		c-2.5,0-4.6,2-4.6,4.6s2,4.6,4.6,4.6C703.1,782.5,705.2,780.4,705.2,777.9L705.2,777.9z"/>
	<path id="XMLID_125_" fill-rule="evenodd" clip-rule="evenodd" fill="#FFFFFF" d="M902.7,444.8c0-2.5-2.1-4.6-4.6-4.6
		c-2.5,0-4.6,2-4.6,4.6s2,4.6,4.6,4.6C900.6,449.4,902.7,447.4,902.7,444.8L902.7,444.8z"/>
	<path id="XMLID_126_" fill-rule="evenodd" clip-rule="evenodd" fill="#FFFFFF" d="M830.7,369.8c0-1.3-1.1-2.4-2.4-2.4
		c-1.3,0-2.4,1.1-2.4,2.4c0,1.3,1.1,2.4,2.4,2.4C829.6,372.1,830.7,371.1,830.7,369.8L830.7,369.8z"/>
	<path id="XMLID_376_" fill-rule="evenodd" clip-rule="evenodd" fill="#FFFFFF" d="M640,687.5c0-1.3-1.1-2.4-2.4-2.4
		c-1.3,0-2.4,1.1-2.4,2.4s1.1,2.4,2.4,2.4C638.9,689.9,640,688.8,640,687.5L640,687.5z"/>
	<path id="XMLID_127_" fill-rule="evenodd" clip-rule="evenodd" fill="#FFFFFF" d="M864.9,318.1c0-1.3-1.1-2.4-2.4-2.4
		c-1.3,0-2.4,1.1-2.4,2.4c0,1.3,1.1,2.4,2.4,2.4C863.8,320.5,864.9,319.4,864.9,318.1L864.9,318.1z"/>
	<path id="XMLID_128_" fill-rule="evenodd" clip-rule="evenodd" fill="#FFFFFF" d="M1096.3,308.6c0-1.3-1.1-2.4-2.4-2.4
		c-1.3,0-2.4,1.1-2.4,2.4c0,1.3,1.1,2.4,2.4,2.4C1095.2,311,1096.3,309.9,1096.3,308.6L1096.3,308.6z"/>
	<path id="XMLID_129_" fill-rule="evenodd" clip-rule="evenodd" fill="#FFFFFF" d="M1072.3,387.8c0-1.3-1.1-2.4-2.4-2.4
		c-1.3,0-2.4,1.1-2.4,2.4c0,1.3,1.1,2.4,2.4,2.4C1071.2,390.2,1072.3,389.1,1072.3,387.8L1072.3,387.8z"/>
	<path id="XMLID_130_" fill-rule="evenodd" clip-rule="evenodd" fill="#FFFFFF" d="M741,33.4c0-1.3-1.1-2.4-2.4-2.4
		c-1.3,0-2.4,1.1-2.4,2.4c0,1.3,1.1,2.4,2.4,2.4C739.9,35.8,741,34.7,741,33.4L741,33.4z"/>
	<path id="XMLID_131_" fill-rule="evenodd" clip-rule="evenodd" fill="#FFFFFF" d="M917.2,60.7c0-1.3-1.1-2.4-2.4-2.4
		c-1.3,0-2.4,1.1-2.4,2.4c0,1.3,1.1,2.4,2.4,2.4C916.2,63.1,917.2,62,917.2,60.7L917.2,60.7z"/>
	<path id="XMLID_132_" fill-rule="evenodd" clip-rule="evenodd" fill="#FFFFFF" d="M927.4,341.8c0-1.3-1.1-2.4-2.4-2.4
		c-1.3,0-2.4,1.1-2.4,2.4c0,1.3,1.1,2.4,2.4,2.4C926.3,344.2,927.4,343.1,927.4,341.8L927.4,341.8z"/>
	<path id="XMLID_133_" fill-rule="evenodd" clip-rule="evenodd" fill="#FFFFFF" d="M1061.1,98.1c0-1.3-1.1-2.4-2.4-2.4
		c-1.3,0-2.4,1.1-2.4,2.4s1.1,2.4,2.4,2.4C1060,100.4,1061.1,99.4,1061.1,98.1L1061.1,98.1z"/>
	<path id="XMLID_134_" fill-rule="evenodd" clip-rule="evenodd" fill="#FFFFFF" d="M751.4,433.3c0-1.3-1.1-2.4-2.4-2.4
		c-1.3,0-2.4,1.1-2.4,2.4c0,1.3,1.1,2.4,2.4,2.4C750.4,435.7,751.4,434.6,751.4,433.3L751.4,433.3z"/>
	<path id="XMLID_135_" fill-rule="evenodd" clip-rule="evenodd" fill="#FFFFFF" d="M836.6,365c0-0.8-0.7-1.5-1.5-1.5
		c-0.8,0-1.5,0.7-1.5,1.5c0,0.8,0.7,1.5,1.5,1.5C835.9,366.5,836.6,365.8,836.6,365L836.6,365z"/>
	<path id="XMLID_136_" fill-rule="evenodd" clip-rule="evenodd" fill="#FFFFFF" d="M942.3,258.3c0-1.3-1.1-2.4-2.4-2.4
		c-1.3,0-2.4,1.1-2.4,2.4c0,1.3,1.1,2.4,2.4,2.4C941.2,260.7,942.3,259.6,942.3,258.3L942.3,258.3z"/>
	<path id="XMLID_137_" fill-rule="evenodd" clip-rule="evenodd" fill="#FFFFFF" d="M1085.5,292.9c0-1.3-1.1-2.4-2.4-2.4
		c-1.3,0-2.4,1.1-2.4,2.4c0,1.3,1.1,2.4,2.4,2.4C1084.4,295.3,1085.5,294.2,1085.5,292.9L1085.5,292.9z"/>
	<path id="XMLID_138_" fill-rule="evenodd" clip-rule="evenodd" fill="#FFFFFF" d="M948.2,253.5c0-0.8-0.7-1.5-1.5-1.5
		s-1.5,0.7-1.5,1.5s0.7,1.5,1.5,1.5S948.2,254.4,948.2,253.5L948.2,253.5z"/>
	<path id="XMLID_139_" fill-rule="evenodd" clip-rule="evenodd" fill="#FFFFFF" d="M730.3,90.7c0-1.3-1.1-2.4-2.4-2.4
		c-1.3,0-2.4,1.1-2.4,2.4c0,1.3,1.1,2.4,2.4,2.4C729.3,93.1,730.3,92.1,730.3,90.7L730.3,90.7z"/>
	<path id="XMLID_140_" fill-rule="evenodd" clip-rule="evenodd" fill="#FFFFFF" d="M736.2,86c0-0.8-0.7-1.5-1.5-1.5
		s-1.5,0.7-1.5,1.5c0,0.8,0.7,1.5,1.5,1.5S736.2,86.8,736.2,86L736.2,86z"/>
	<path id="XMLID_141_" fill-rule="evenodd" clip-rule="evenodd" fill="#FFFFFF" d="M1052.8,35.8c0-1.3-1.1-2.4-2.4-2.4
		s-2.4,1.1-2.4,2.4s1.1,2.4,2.4,2.4S1052.8,37.1,1052.8,35.8L1052.8,35.8z"/>
	<path id="XMLID_142_" fill-rule="evenodd" clip-rule="evenodd" fill="#FFFFFF" d="M1058.7,31c0-0.8-0.7-1.5-1.5-1.5
		c-0.8,0-1.5,0.7-1.5,1.5c0,0.8,0.7,1.5,1.5,1.5C1058,32.5,1058.7,31.8,1058.7,31L1058.7,31z"/>
	<path id="XMLID_143_" fill-rule="evenodd" clip-rule="evenodd" fill="#FFFFFF" d="M748.2,418.7c0-0.8-0.7-1.5-1.5-1.5
		c-0.8,0-1.5,0.7-1.5,1.5c0,0.8,0.7,1.5,1.5,1.5C747.5,420.2,748.2,419.6,748.2,418.7L748.2,418.7z"/>
	<path id="XMLID_171_" fill-rule="evenodd" clip-rule="evenodd" fill="#FFFFFF" d="M1331.7,8.4c0-2.5-2-4.6-4.6-4.6
		c-2.5,0-4.6,2-4.6,4.6c0,2.5,2,4.6,4.6,4.6C1329.6,13,1331.7,10.9,1331.7,8.4L1331.7,8.4z"/>
	<path id="XMLID_172_" fill-rule="evenodd" clip-rule="evenodd" fill="#FFFFFF" d="M1296,310.1c0-2.5-2.1-4.6-4.6-4.6
		c-2.5,0-4.6,2.1-4.6,4.6c0,2.5,2,4.6,4.6,4.6C1293.9,314.7,1296,312.6,1296,310.1L1296,310.1z"/>
	<path id="XMLID_176_" fill-rule="evenodd" clip-rule="evenodd" fill="#FFFFFF" d="M1144.7,298.6c0-1.3-1.1-2.4-2.4-2.4
		s-2.4,1.1-2.4,2.4c0,1.3,1.1,2.4,2.4,2.4S1144.7,299.9,1144.7,298.6L1144.7,298.6z"/>
	<path id="XMLID_153_" fill-rule="evenodd" clip-rule="evenodd" fill="#FFFFFF" d="M1255.8,202.4c0-1.3-1.1-2.4-2.4-2.4
		s-2.4,1.1-2.4,2.4c0,1.3,1.1,2.4,2.4,2.4S1255.8,203.7,1255.8,202.4L1255.8,202.4z"/>
	<path id="XMLID_180_" fill-rule="evenodd" clip-rule="evenodd" fill="#FFFFFF" d="M1141.5,284c0-0.8-0.7-1.5-1.5-1.5
		c-0.8,0-1.5,0.7-1.5,1.5c0,0.8,0.7,1.5,1.5,1.5C1140.8,285.5,1141.5,284.8,1141.5,284L1141.5,284z"/>
	<path id="XMLID_154_" fill-rule="evenodd" clip-rule="evenodd" fill="#FFFFFF" d="M1125.8,138.6c0-0.8-0.7-1.5-1.5-1.5
		c-0.8,0-1.5,0.7-1.5,1.5c0,0.8,0.7,1.5,1.5,1.5C1125.1,140.1,1125.8,139.4,1125.8,138.6L1125.8,138.6z"/>
	<path id="XMLID_209_" fill-rule="evenodd" clip-rule="evenodd" fill="#FFFFFF" d="M1182.7,830.8c0-2.5-2-4.6-4.6-4.6
		s-4.6,2.1-4.6,4.6c0,2.5,2,4.6,4.6,4.6S1182.7,833.3,1182.7,830.8L1182.7,830.8z"/>
	<path id="XMLID_210_" fill-rule="evenodd" clip-rule="evenodd" fill="#FFFFFF" d="M1110.7,755.7c0-1.3-1.1-2.4-2.4-2.4
		s-2.4,1.1-2.4,2.4s1.1,2.4,2.4,2.4S1110.7,757,1110.7,755.7L1110.7,755.7z"/>
	<path id="XMLID_211_" fill-rule="evenodd" clip-rule="evenodd" fill="#FFFFFF" d="M1144.9,704.1c0-1.3-1.1-2.4-2.4-2.4
		s-2.4,1.1-2.4,2.4c0,1.3,1.1,2.4,2.4,2.4S1144.9,705.4,1144.9,704.1L1144.9,704.1z"/>
	<path id="XMLID_212_" fill-rule="evenodd" clip-rule="evenodd" fill="#FFFFFF" d="M1376.3,694.6c0-1.3-1.1-2.4-2.4-2.4
		c-1.3,0-2.4,1.1-2.4,2.4s1.1,2.4,2.4,2.4C1375.2,696.9,1376.3,695.9,1376.3,694.6L1376.3,694.6z"/>
	<path id="XMLID_213_" fill-rule="evenodd" clip-rule="evenodd" fill="#FFFFFF" d="M1352.3,773.8c0-1.3-1.1-2.4-2.4-2.4
		s-2.4,1.1-2.4,2.4s1.1,2.4,2.4,2.4S1352.3,775.1,1352.3,773.8L1352.3,773.8z"/>
	<path id="XMLID_214_" fill-rule="evenodd" clip-rule="evenodd" fill="#FFFFFF" d="M1021,419.3c0-1.3-1.1-2.4-2.4-2.4
		c-1.3,0-2.4,1.1-2.4,2.4s1.1,2.4,2.4,2.4C1019.9,421.7,1021,420.6,1021,419.3L1021,419.3z"/>
	<path id="XMLID_215_" fill-rule="evenodd" clip-rule="evenodd" fill="#FFFFFF" d="M1197.2,446.7c0-1.3-1.1-2.4-2.4-2.4
		s-2.4,1.1-2.4,2.4c0,1.3,1.1,2.4,2.4,2.4S1197.2,448,1197.2,446.7L1197.2,446.7z"/>
	<path id="XMLID_216_" fill-rule="evenodd" clip-rule="evenodd" fill="#FFFFFF" d="M1207.4,727.8c0-1.3-1.1-2.4-2.4-2.4
		s-2.4,1.1-2.4,2.4s1.1,2.4,2.4,2.4S1207.4,729.1,1207.4,727.8L1207.4,727.8z"/>
	<path id="XMLID_217_" fill-rule="evenodd" clip-rule="evenodd" fill="#FFFFFF" d="M1341.1,484c0-1.3-1.1-2.4-2.4-2.4
		s-2.4,1.1-2.4,2.4c0,1.3,1.1,2.4,2.4,2.4S1341.1,485.3,1341.1,484L1341.1,484z"/>
	<path id="XMLID_218_" fill-rule="evenodd" clip-rule="evenodd" fill="#FFFFFF" d="M1031.4,819.2c0-1.3-1.1-2.4-2.4-2.4
		c-1.3,0-2.4,1.1-2.4,2.4s1.1,2.4,2.4,2.4C1030.4,821.6,1031.4,820.6,1031.4,819.2L1031.4,819.2z"/>
	<path id="XMLID_219_" fill-rule="evenodd" clip-rule="evenodd" fill="#FFFFFF" d="M1116.6,750.9c0-0.8-0.7-1.5-1.5-1.5
		c-0.8,0-1.5,0.7-1.5,1.5c0,0.8,0.7,1.5,1.5,1.5C1115.9,752.4,1116.6,751.8,1116.6,750.9L1116.6,750.9z"/>
	<path id="XMLID_221_" fill-rule="evenodd" clip-rule="evenodd" fill="#FFFFFF" d="M1365.5,678.9c0-1.3-1.1-2.4-2.4-2.4
		c-1.3,0-2.4,1.1-2.4,2.4c0,1.3,1.1,2.4,2.4,2.4C1364.4,681.2,1365.5,680.2,1365.5,678.9L1365.5,678.9z"/>
	<path id="XMLID_223_" fill-rule="evenodd" clip-rule="evenodd" fill="#FFFFFF" d="M1010.3,476.7c0-1.3-1.1-2.4-2.4-2.4
		c-1.3,0-2.4,1.1-2.4,2.4c0,1.3,1.1,2.4,2.4,2.4C1009.3,479.1,1010.3,478,1010.3,476.7L1010.3,476.7z"/>
	<path id="XMLID_224_" fill-rule="evenodd" clip-rule="evenodd" fill="#FFFFFF" d="M1016.2,471.9c0-0.8-0.7-1.5-1.5-1.5
		s-1.5,0.7-1.5,1.5c0,0.8,0.7,1.5,1.5,1.5S1016.2,472.8,1016.2,471.9L1016.2,471.9z"/>
	<path id="XMLID_225_" fill-rule="evenodd" clip-rule="evenodd" fill="#FFFFFF" d="M1332.8,421.7c0-1.3-1.1-2.4-2.4-2.4
		s-2.4,1.1-2.4,2.4c0,1.3,1.1,2.4,2.4,2.4S1332.8,423,1332.8,421.7L1332.8,421.7z"/>
	<path id="XMLID_226_" fill-rule="evenodd" clip-rule="evenodd" fill="#FFFFFF" d="M1338.7,416.9c0-0.8-0.7-1.5-1.5-1.5
		s-1.5,0.7-1.5,1.5c0,0.8,0.7,1.5,1.5,1.5S1338.7,417.8,1338.7,416.9L1338.7,416.9z"/>
	<path id="XMLID_227_" fill-rule="evenodd" clip-rule="evenodd" fill="#FFFFFF" d="M1028.2,804.7c0-0.8-0.7-1.5-1.5-1.5
		c-0.8,0-1.5,0.7-1.5,1.5c0,0.8,0.7,1.5,1.5,1.5C1027.5,806.2,1028.2,805.5,1028.2,804.7L1028.2,804.7z"/>
	<path id="XMLID_230_" fill-rule="evenodd" clip-rule="evenodd" fill="#002932" d="M851.9,721.4
		C851.9,721.4,851.9,721.4,851.9,721.4C851.9,721.4,851.9,721.4,851.9,721.4L851.9,721.4z M852,721.5C852,721.5,852,721.5,852,721.5
		C852,721.5,852,721.5,852,721.5L852,721.5z M852.1,721.5C852.1,721.5,852.1,721.5,852.1,721.5C852.1,721.5,852.1,721.5,852.1,721.5
		L852.1,721.5z M852.2,721.6C852.2,721.6,852.2,721.6,852.2,721.6C852.2,721.6,852.2,721.6,852.2,721.6L852.2,721.6z M852.3,721.7
		C852.3,721.7,852.3,721.7,852.3,721.7C852.3,721.7,852.3,721.7,852.3,721.7L852.3,721.7z M852.4,721.7
		C852.4,721.7,852.4,721.8,852.4,721.7C852.4,721.8,852.4,721.7,852.4,721.7L852.4,721.7z M852.5,721.8
		C852.5,721.8,852.5,721.8,852.5,721.8C852.5,721.8,852.5,721.8,852.5,721.8L852.5,721.8z M852.6,721.9
		C852.6,721.9,852.6,721.9,852.6,721.9C852.6,721.9,852.6,721.9,852.6,721.9L852.6,721.9z M852.7,721.9c0.1,0,0.1,0.1,0.2,0.1
		C852.8,722,852.7,722,852.7,721.9L852.7,721.9z M852.8,722.1c0.1,0,0.1,0.1,0.2,0.1C853,722.1,852.9,722.1,852.8,722.1L852.8,722.1
		z M853,722.2c0.1,0,0.1,0.1,0.2,0.1C853.1,722.3,853.1,722.2,853,722.2L853,722.2z M853.2,722.3c0.1,0,0.1,0.1,0.2,0.1
		C853.3,722.4,853.3,722.4,853.2,722.3L853.2,722.3z M853.4,722.5c0.1,0,0.1,0.1,0.2,0.1C853.5,722.5,853.5,722.5,853.4,722.5
		L853.4,722.5z M853.6,722.6c0.1,0,0.1,0.1,0.2,0.1C853.7,722.7,853.7,722.6,853.6,722.6L853.6,722.6z M853.8,722.7
		c0,0,0.1,0.1,0.1,0.1C853.9,722.8,853.8,722.7,853.8,722.7L853.8,722.7z M853.9,722.8C853.9,722.8,853.9,722.8,853.9,722.8
		C853.9,722.8,853.9,722.8,853.9,722.8L853.9,722.8z M854,722.9C854,722.9,854,722.9,854,722.9C854,722.9,854,722.9,854,722.9
		L854,722.9z M854.1,722.9C854.1,722.9,854.1,723,854.1,722.9C854.1,723,854.1,722.9,854.1,722.9L854.1,722.9z M854.2,723
		C854.2,723,854.2,723,854.2,723C854.2,723,854.2,723,854.2,723L854.2,723z M854.3,723.1C854.3,723.1,854.3,723.1,854.3,723.1
		C854.3,723.1,854.3,723.1,854.3,723.1L854.3,723.1z M854.4,723.1C854.4,723.1,854.4,723.2,854.4,723.1
		C854.4,723.2,854.4,723.1,854.4,723.1L854.4,723.1z M854.5,723.2C854.5,723.2,854.5,723.2,854.5,723.2
		C854.5,723.2,854.5,723.2,854.5,723.2L854.5,723.2z M854.6,723.3C854.6,723.3,854.6,723.3,854.6,723.3
		C854.6,723.3,854.6,723.3,854.6,723.3L854.6,723.3z M854.7,723.3C854.7,723.3,854.7,723.4,854.7,723.3
		C854.7,723.4,854.7,723.3,854.7,723.3L854.7,723.3z M854.9,723.5C854.9,723.5,854.9,723.5,854.9,723.5
		C854.9,723.5,854.9,723.5,854.9,723.5L854.9,723.5z"/>
	<path id="XMLID_255_" fill-rule="evenodd" clip-rule="evenodd" fill="#FFFFFF" d="M837.8,600.5c0-2.5-2-4.6-4.6-4.6
		c-2.5,0-4.6,2-4.6,4.6c0,2.5,2,4.6,4.6,4.6C835.8,605.1,837.8,603.1,837.8,600.5L837.8,600.5z"/>
	<path id="XMLID_256_" fill-rule="evenodd" clip-rule="evenodd" fill="#FFFFFF" d="M802.1,902.2c0-2.5-2-4.6-4.6-4.6
		c-2.5,0-4.6,2-4.6,4.6s2,4.6,4.6,4.6C800,906.8,802.1,904.8,802.1,902.2L802.1,902.2z"/>
	<path id="XMLID_379_" fill-rule="evenodd" clip-rule="evenodd" fill="#FFFFFF" d="M1100.8,897.6c0-2.5-2-4.6-4.6-4.6
		c-2.5,0-4.6,2-4.6,4.6c0,2.5,2,4.6,4.6,4.6C1098.8,902.2,1100.8,900.2,1100.8,897.6L1100.8,897.6z"/>
	<path id="XMLID_257_" fill-rule="evenodd" clip-rule="evenodd" fill="#FFFFFF" d="M730.1,827.1c0-1.3-1.1-2.4-2.4-2.4
		c-1.3,0-2.4,1.1-2.4,2.4c0,1.3,1.1,2.4,2.4,2.4C729.1,829.5,730.1,828.5,730.1,827.1L730.1,827.1z"/>
	<path id="XMLID_258_" fill-rule="evenodd" clip-rule="evenodd" fill="#FFFFFF" d="M764.3,775.5c0-1.3-1.1-2.4-2.4-2.4
		c-1.3,0-2.4,1.1-2.4,2.4c0,1.3,1.1,2.4,2.4,2.4C763.3,777.9,764.3,776.8,764.3,775.5L764.3,775.5z"/>
	<path id="XMLID_259_" fill-rule="evenodd" clip-rule="evenodd" fill="#FFFFFF" d="M995.7,766c0-1.3-1.1-2.4-2.4-2.4
		c-1.3,0-2.4,1.1-2.4,2.4c0,1.3,1.1,2.4,2.4,2.4C994.6,768.4,995.7,767.3,995.7,766L995.7,766z"/>
	<path id="XMLID_380_" fill-rule="evenodd" clip-rule="evenodd" fill="#FFFFFF" d="M1160.8,945c0-1.3-1.1-2.4-2.4-2.4
		c-1.3,0-2.4,1.1-2.4,2.4c0,1.3,1.1,2.4,2.4,2.4C1159.8,947.4,1160.8,946.3,1160.8,945L1160.8,945z"/>
	<path id="XMLID_260_" fill-rule="evenodd" clip-rule="evenodd" fill="#FFFFFF" d="M971.7,845.2c0-1.3-1.1-2.4-2.4-2.4
		c-1.3,0-2.4,1.1-2.4,2.4c0,1.3,1.1,2.4,2.4,2.4C970.7,847.6,971.7,846.5,971.7,845.2L971.7,845.2z"/>
	<path id="XMLID_261_" fill-rule="evenodd" clip-rule="evenodd" fill="#FFFFFF" d="M640.4,490.7c0-1.3-1.1-2.4-2.4-2.4
		c-1.3,0-2.4,1.1-2.4,2.4c0,1.3,1.1,2.4,2.4,2.4C639.3,493.1,640.4,492.1,640.4,490.7L640.4,490.7z"/>
	<path id="XMLID_262_" fill-rule="evenodd" clip-rule="evenodd" fill="#FFFFFF" d="M816.6,518.1c0-1.3-1.1-2.4-2.4-2.4
		c-1.3,0-2.4,1.1-2.4,2.4c0,1.3,1.1,2.4,2.4,2.4C815.6,520.5,816.6,519.4,816.6,518.1L816.6,518.1z"/>
	<path id="XMLID_263_" fill-rule="evenodd" clip-rule="evenodd" fill="#FFFFFF" d="M826.8,799.2c0-1.3-1.1-2.4-2.4-2.4
		c-1.3,0-2.4,1.1-2.4,2.4s1.1,2.4,2.4,2.4C825.7,801.6,826.8,800.5,826.8,799.2L826.8,799.2z"/>
	<path id="XMLID_264_" fill-rule="evenodd" clip-rule="evenodd" fill="#FFFFFF" d="M960.5,555.4c0-1.3-1.1-2.4-2.4-2.4
		c-1.3,0-2.4,1.1-2.4,2.4s1.1,2.4,2.4,2.4C959.4,557.8,960.5,556.8,960.5,555.4L960.5,555.4z"/>
	<path id="XMLID_265_" fill-rule="evenodd" clip-rule="evenodd" fill="#FFFFFF" d="M650.8,890.7c0-1.3-1.1-2.4-2.4-2.4
		c-1.3,0-2.4,1.1-2.4,2.4c0,1.3,1.1,2.4,2.4,2.4C649.8,893.1,650.8,892,650.8,890.7L650.8,890.7z"/>
	<path id="XMLID_266_" fill-rule="evenodd" clip-rule="evenodd" fill="#FFFFFF" d="M736,822.4c0-0.8-0.7-1.5-1.5-1.5
		c-0.8,0-1.5,0.7-1.5,1.5c0,0.8,0.7,1.5,1.5,1.5C735.3,823.9,736,823.2,736,822.4L736,822.4z"/>
	<path id="XMLID_267_" fill-rule="evenodd" clip-rule="evenodd" fill="#FFFFFF" d="M841.7,715.7c0-1.3-1.1-2.4-2.4-2.4
		c-1.3,0-2.4,1.1-2.4,2.4s1.1,2.4,2.4,2.4C840.7,718.1,841.7,717,841.7,715.7L841.7,715.7z"/>
	<path id="XMLID_268_" fill-rule="evenodd" clip-rule="evenodd" fill="#FFFFFF" d="M984.9,750.3c0-1.3-1.1-2.4-2.4-2.4
		c-1.3,0-2.4,1.1-2.4,2.4s1.1,2.4,2.4,2.4C983.8,752.7,984.9,751.6,984.9,750.3L984.9,750.3z"/>
	<path id="XMLID_269_" fill-rule="evenodd" clip-rule="evenodd" fill="#FFFFFF" d="M847.6,710.9c0-0.8-0.7-1.5-1.5-1.5
		c-0.8,0-1.5,0.7-1.5,1.5c0,0.8,0.7,1.5,1.5,1.5C846.9,712.4,847.6,711.8,847.6,710.9L847.6,710.9z"/>
	<path id="XMLID_270_" fill-rule="evenodd" clip-rule="evenodd" fill="#FFFFFF" d="M629.8,548.1c0-1.3-1.1-2.4-2.4-2.4
		c-1.3,0-2.4,1.1-2.4,2.4c0,1.3,1.1,2.4,2.4,2.4C628.7,550.5,629.8,549.4,629.8,548.1L629.8,548.1z"/>
	<path id="XMLID_271_" fill-rule="evenodd" clip-rule="evenodd" fill="#FFFFFF" d="M635.6,543.4c0-0.8-0.7-1.5-1.5-1.5
		c-0.8,0-1.5,0.7-1.5,1.5c0,0.8,0.7,1.5,1.5,1.5C635,544.8,635.6,544.2,635.6,543.4L635.6,543.4z"/>
	<path id="XMLID_272_" fill-rule="evenodd" clip-rule="evenodd" fill="#FFFFFF" d="M952.3,493.1c0-1.3-1.1-2.4-2.4-2.4
		c-1.3,0-2.4,1.1-2.4,2.4c0,1.3,1.1,2.4,2.4,2.4C951.2,495.5,952.3,494.4,952.3,493.1L952.3,493.1z"/>
	<path id="XMLID_273_" fill-rule="evenodd" clip-rule="evenodd" fill="#FFFFFF" d="M958.1,488.4c0-0.8-0.7-1.5-1.5-1.5
		c-0.8,0-1.5,0.7-1.5,1.5c0,0.8,0.7,1.5,1.5,1.5C957.5,489.9,958.1,489.2,958.1,488.4L958.1,488.4z"/>
	<path id="XMLID_274_" fill-rule="evenodd" clip-rule="evenodd" fill="#FFFFFF" d="M647.6,876.1c0-0.8-0.7-1.5-1.5-1.5
		c-0.8,0-1.5,0.7-1.5,1.5c0,0.8,0.7,1.5,1.5,1.5C646.9,877.6,647.6,876.9,647.6,876.1L647.6,876.1z"/>
	<polygon id="XMLID_277_" fill-rule="evenodd" clip-rule="evenodd" fill="#FBEE2D" points="896.2,895.7 901.8,901.5 909,898 
		905.3,905.1 910.9,910.9 903,909.5 899.2,916.6 898.1,908.6 890.2,907.2 897.4,903.7 	"/>
	<polygon id="XMLID_278_" fill-rule="evenodd" clip-rule="evenodd" fill="#FBEE2D" points="1266.1,769 1273.9,777.1 1284,772.1 
		1278.8,782.1 1286.7,790.1 1275.6,788.2 1270.5,798.2 1268.8,787.1 1257.7,785.2 1267.7,780.2 	"/>
	<polygon id="XMLID_279_" fill-rule="evenodd" clip-rule="evenodd" fill="#FBEE2D" points="1261.3,398.4 1261.8,408.1 1271.2,410.7 
		1262.1,414.1 1262.6,423.8 1256.5,416.3 1247.5,419.7 1252.8,411.6 1246.7,404.1 1256.1,406.6 	"/>
	<polygon id="XMLID_280_" fill-rule="evenodd" clip-rule="evenodd" fill="#FBEE2D" points="1258.9,904.8 1257.3,913.8 1265.3,918.1 
		1256.3,919.4 1254.6,928.4 1250.7,920.2 1241.6,921.4 1248.2,915.1 1244.2,906.8 1252.3,911.2 	"/>
	<polygon id="XMLID_281_" fill-rule="evenodd" clip-rule="evenodd" fill="#FBEE2D" points="384.1,379.2 387.1,388.4 396.8,388.4 
		389,394.2 392,403.5 384.1,397.7 376.2,403.5 379.2,394.2 371.4,388.4 381.1,388.4 	"/>
	<polygon id="XMLID_282_" fill-rule="evenodd" clip-rule="evenodd" fill="#FBEE2D" points="676.1,298.6 678.8,304.8 685.5,304.2 
		680.5,308.7 683.2,314.9 677.4,311.5 672.4,316 673.8,309.4 667.9,305.9 674.7,305.3 	"/>
	<polygon id="XMLID_283_" fill-rule="evenodd" clip-rule="evenodd" fill="#FBEE2D" points="150.8,208.6 153.8,217.8 163.5,217.8 
		155.6,223.6 158.6,232.9 150.8,227.1 142.9,232.9 145.9,223.6 138,217.8 147.8,217.8 	"/>
	<polygon id="XMLID_284_" fill-rule="evenodd" clip-rule="evenodd" fill="#FBEE2D" points="463.8,104.6 469.6,112.4 478.8,109.3 
		473.2,117.2 479,125.1 469.7,122.1 464.1,130.1 464,120.3 454.7,117.4 463.9,114.3 	"/>
	<path id="XMLID_286_" fill-rule="evenodd" clip-rule="evenodd" fill="#0069B5" d="M332,604c12.3-35.2,8.4-68.8,4.5-101.5
		c-1-3.6-2-7.2-3.1-10.8c-22.8-5.2-46.4-7.9-70.8-7.9C154,483.8,57.9,538.2,0,621.3v233.3c59.1-3.8,117.4-10.4,171-40.6
		C252,768,301,690,332,604z"/>
	<path id="XMLID_287_" fill-rule="evenodd" clip-rule="evenodd" fill="#005CA0" d="M336.5,502.5c3.8,32.7,7.8,66.4-4.5,101.5
		c-31,86-80,164-161,210c-53.6,30.2-111.9,36.9-171,40.6V980h188.7c30.5-26.1,60.4-52.9,88.3-83c26-27,47-59,60-93
		C374.7,703.2,364,600.9,336.5,502.5z"/>
	<path id="XMLID_275_" fill-rule="evenodd" clip-rule="evenodd" fill="#002B59" d="M583.1,805.4c0-153.2-106.7-281.4-249.6-313.7
		c29.7,101.8,42.6,207.9,3.5,312.3c-13,34-34,66-60,93c-27.9,30.1-57.9,56.9-88.3,83h343.2C564.3,929.7,583.1,869.8,583.1,805.4z"/>
	<path id="XMLID_228_" fill-rule="evenodd" clip-rule="evenodd" fill="#559A38" d="M147.5,794.7c-4.7,1.4-7,11.9-11.3,9.6
		c-7.1-3.8-4.1-17.4-10.9-21.6c-6.7-4.1-16-1.8-23.4,0.6c-4.4,1.5-5.1,8.9-9.5,10.2c-7.8,2.3-16.9,3.3-24.3,0
		c-3.4-1.5,1.2-7.8-0.5-11.1c-2.3-4.4-8.4-5.9-10.6-10.3c-1.8-3.7-0.3-8.2-0.5-12.3c0,0-13.1-2.3-12.5,0.4
		c0.6,2.7-10.1,9.7-10.1,9.7c-2.5-1.1-11.1-21.8-11.1-21.8L33.5,737c0,0,32.8,0.8,36.1-0.1c3.3-0.9,19.1,8.9,21.3,10.2
		c2.2,1.3,24.7-22.5,23.8-24.3s10.9-40.9,10.7-43.4c-0.2-2.4,21.9-23.1,21.9-23.1l35.2-0.6l-0.3-22.4l3.4-0.3l31.4,11.7l21.7-23.2
		l-11.8-0.4c1.8-7.5-19.3-36-21.8-33.7c-2.5,2.2-20.9,10.9-20.9,10.9l-47.3,0.8c0,0-12,21.7-12.4,22l-9.8-10.6l-12.8-0.7l0.5-23.2
		l29.8-10.7l5.3-0.3l11.8,11l30.2-10.9l25.6-0.4c-2.2-16.2-22.1-34-22.1-34h-23.7c2.4,2.6-30.5,21.8-30.5,21.8c-1.7,0.7-5.8,0-5.8,0
		c-4.3-14.3-41.7-22.9-41.7-22.9l-0.4,0.3C45.7,564.7,19.4,593,0,621v154.3c11.3,6.6,21.6,18.4,21.6,18.4c8.1,0.2,16.7-2.1,24.4,0.5
		c4.9,1.6,5.7,9.6,10.6,11.2c7.2,2.4,16.2-3.7,22.9,0c3.7,2,0.2,8.4,0.3,12.6c0,0-10.9,8.9-13.5,13.7c-1.5,2.8-4.1,10.9-5.9,17.2
		c38.2-5.4,75.4-15,110.6-34.9c6.4-3.7,12.6-7.5,18.7-11.6c-5.3-4.1-11.8-6.7-18.2-8.2C163.7,792.4,155.2,792.5,147.5,794.7z"/>
	<path id="XMLID_290_" fill-rule="evenodd" clip-rule="evenodd" fill="#417F2D" d="M60.4,848.9c-0.9,3.2-1.7,5.9-1.9,7.1
		c-0.1,0.3,0.5,1,0.7,9.9c0.3,13.9,32.5,42.7,32.5,42.7c7.5,0.3,17.4-4.6,22.5,0.9c5.5,5.9-1.7,16.5,0.9,24.1
		c5.1,14.8,14.6,27.7,21.9,41.5c0,0-0.2,2-0.4,4.8h52.2c4.9-4.2,9.8-8.5,14.7-12.7c-0.2-4.3,0.3-8.5,2.2-12.4
		c3.7-7.7,15.2-7.7,22.8-11.5c0,0-0.5-20.7,0.9-23.1c1.4-2.4,18.3-6.6,22.1-11.6s9.9-31.7,10.7-33.2c0.8-1.5-9-22.9-10.9-23.8
		c-12.4-5.7-21.8-16.5-34-22.7c-3.8-1.9-9.6,1.9-12.6-1c-6-5.9-5.6-16.5-11.4-22.5c-1.1-1.1-2.2-2.1-3.4-3c-6,4-12.2,7.9-18.7,11.6
		C135.8,833.9,98.5,843.5,60.4,848.9z"/>
	<path id="XMLID_285_" fill-rule="evenodd" clip-rule="evenodd" fill="#559A38" d="M204.9,980c-0.6-4.3-1.3-8.6-1.5-12.7
		c-4.9,4.3-9.8,8.5-14.7,12.7H204.9z"/>
	<path id="XMLID_288_" fill-rule="evenodd" clip-rule="evenodd" fill="#00447B" d="M445.5,541.3v33.5c0,0,1.7,3.8,13.1,14.6
		l21.4,8.4l-10.2,12.1l-24.3,1.4l-11.3,9.2v23L423,634l-23.4,0.3l-9.9,21.7l10.9,21.5l20.4,2.3l15-14.3c0,0,22.1-6.9,30.3-19.4
		c8.2-12.5,10.4,16.1,10.4,16.1l3.3,17.6l11.4,10l21.4-10.7l-19.3-23l8.9-10.2l22.4,19.2l1.3,13l13.2,1.5l9.4,10.2l13.4,1.1
		C562.2,690.9,532.8,601.6,445.5,541.3L445.5,541.3z"/>
	<path id="XMLID_289_" fill-rule="evenodd" clip-rule="evenodd" fill="#00447B" d="M490.7,980v-1.9l-19.9-41.9l21.4-26.1l-10.7-21.5
		l1-27.1l-20.4-8.2l-23.4-3.6l-23.9,14.3l-25.2-2l-24.2-10.2c0,0-11.7-29.6-11.7-31.2c0-1.5,0-34.2,0-34.2l9.7-10.2l2-39.8l10-9.7
		h22.5l17.3-10.7l41.7-3.1l31.6,21.5c0,0,28-19.9,37.7-17.4c9.7,2.6,15.8,6.6,21.4,7.7c5.6,1,25.4,0.8,25.4,0.8
		s43.6,124.2-41.4,254.5H490.7z"/>
	<path id="XMLID_295_" fill-rule="evenodd" clip-rule="evenodd" fill="#005497" d="M864.7,529.5l-1.1,2.2c-1.1,2.1-3.8,3-5.9,1.8
		l-11.4-6.1c-2.1-1.1-3-3.8-1.8-6l1.1-2.2l-11.7-6.2l22.3-18.5c7.3-2.1,14.9-3.6,22.8-4.2l-2.1,45.5L864.7,529.5z"/>
	<path id="XMLID_296_" fill-rule="evenodd" clip-rule="evenodd" fill="#005497" d="M918.1,557.8L917,560c-1.1,2.1-0.3,4.8,1.8,6
		l11.4,6.1c2.1,1.1,4.8,0.3,5.9-1.8l1.1-2.2l11.7,6.2l2.6-28.9c-2.4-7.3-5.5-14.4-9.4-21.3L906,551.4L918.1,557.8z"/>
	<path id="XMLID_297_" fill-rule="evenodd" clip-rule="evenodd" fill="#FFC907" d="M941,519.8l-22.7-26.5l-34.5-4.7
		c0,0-69.6,31.5-81.4,95c0,0,19.1-22.3,27.2-27.9c0,0-35.1,65.4-17,132.5c65.9-21.2,101.6-86.3,101.6-86.3
		c-0.3,9.9-8.5,38.1-8.5,38.1C952.5,595.5,941,519.8,941,519.8L941,519.8z"/>
	<path id="XMLID_298_" fill-rule="evenodd" clip-rule="evenodd" fill="#F89C1C" d="M934.6,514.3l-16.9-19.8L892,491
		c0,0-51.9,23.5-60.8,70.9c0,0,14.3-16.6,20.3-20.8c0,0-26.2,48.8-12.7,98.9c49.2-15.9,75.9-64.4,75.9-64.4
		c-0.2,7.4-6.4,28.4-6.4,28.4C943.2,570.9,934.6,514.3,934.6,514.3L934.6,514.3z"/>
	<path id="XMLID_299_" fill-rule="evenodd" clip-rule="evenodd" fill="#F37720" d="M919.9,523.8l-11-12.9l-16.8-2.3
		c0,0-33.9,15.3-39.7,46.3c0,0,9.3-10.9,13.3-13.6c0,0-17.1,31.9-8.3,64.6c32.2-10.4,49.6-42.1,49.6-42.1
		c-0.1,4.8-4.2,18.6-4.2,18.6C925.5,560.7,919.9,523.8,919.9,523.8L919.9,523.8z"/>
	<path id="XMLID_300_" fill-rule="evenodd" clip-rule="evenodd" fill="#ED1C24" d="M896.7,533.8l0-0.1
		c-13.2-36-0.9-102.6,34.3-169.6c35.3-67,83.2-114.6,120.2-124l0.1,0l0,0.1c13.2,36,0.9,102.6-34.3,169.6
		c-35.2,67-83.2,114.6-120.2,124L896.7,533.8z"/>
	<path id="XMLID_301_" fill-rule="evenodd" clip-rule="evenodd" fill="#87171A" d="M1051.2,240.1l0.1,0l0,0.1
		c13.2,36,0.9,102.6-34.3,169.6c-35.2,67-83.2,114.6-120.2,124l-0.2-0.1L1051.2,240.1z"/>
	<path id="XMLID_302_" fill-rule="evenodd" clip-rule="evenodd" fill="#154448" d="M1009.3,322.3c12.3,6.5,17,21.8,10.5,34.1
		c-6.5,12.3-21.7,17-34,10.5c-12.3-6.5-17-21.8-10.5-34.1C981.8,320.5,997,315.7,1009.3,322.3L1009.3,322.3z"/>
	<path id="XMLID_303_" fill="none" d="M1006.8,327.1c9.6,5.1,13.3,17.1,8.2,26.7c-5.1,9.7-17,13.3-26.6,8.2
		c-9.6-5.1-13.3-17-8.2-26.7C985.3,325.7,997.2,322,1006.8,327.1L1006.8,327.1z"/>
	<path id="XMLID_304_" fill-rule="evenodd" clip-rule="evenodd" fill="#0076C0" d="M1007.3,326.2c10.1,5.4,14,18,8.6,28.1
		c-5.3,10.2-17.9,14-28,8.7c-10.1-5.4-14-18-8.6-28.1C984.6,324.7,997.1,320.8,1007.3,326.2L1007.3,326.2z"/>
	<path id="XMLID_305_" fill-rule="evenodd" clip-rule="evenodd" fill="#0093D8" d="M1018.1,347.5c-0.3,2.3-1.1,4.6-2.2,6.8
		c-5.3,10.2-17.9,14-28,8.7c-1.1-0.6-2.1-1.3-3.1-2c0.3-2.3,1.1-4.6,2.2-6.8c5.3-10.2,17.9-14,28-8.7
		C1016.1,346.1,1017.2,346.7,1018.1,347.5L1018.1,347.5z"/>
	<path id="XMLID_306_" fill-rule="evenodd" clip-rule="evenodd" fill="#007CC4" d="M819.9,444.1l8.4,4.5c1,0.5,1.4,1.8,0.9,2.8
		l-40.7,77.4c-0.5,1-1.8,1.4-2.8,0.9l-8.4-4.5c-1-0.5-1.4-1.8-0.9-2.8L817,445C817.6,444,818.9,443.6,819.9,444.1L819.9,444.1z"/>
	<path id="XMLID_307_" fill-rule="evenodd" clip-rule="evenodd" fill="#004884" d="M825.8,447.3l14.5-27.6c0.3-0.5,0.1-1.1-0.4-1.4
		l-1.6-0.8c-0.5-0.3-1.1-0.1-1.4,0.4l-14.5,27.6L825.8,447.3z"/>
	<path id="XMLID_308_" fill-rule="evenodd" clip-rule="evenodd" fill="#007CC4" d="M833.1,420.6l7.2,3.8c0.7,0.4,1,1.2,0.6,1.9
		l-4.1,7.8c-0.4,0.7-1.2,1-1.9,0.6l-7.2-3.8c-0.7-0.4-1-1.2-0.6-1.9l4.1-7.8C831.5,420.5,832.4,420.2,833.1,420.6L833.1,420.6z"/>
	<path id="XMLID_309_" fill-rule="evenodd" clip-rule="evenodd" fill="#0064B1" d="M825.3,435.3l7.2,3.8c0.7,0.4,1,1.2,0.6,1.9
		l-4.1,7.8c-0.4,0.7-1.2,1-1.9,0.6l-7.2-3.8c-0.7-0.4-1-1.2-0.6-1.9l4.1-7.8C823.7,435.2,824.6,434.9,825.3,435.3L825.3,435.3z"/>
	<path id="XMLID_310_" fill-rule="evenodd" clip-rule="evenodd" fill="#00589E" d="M779,524.1l6.4,3.4c0.6,0.3,0.8,1,0.5,1.5l-5,9.5
		c-0.3,0.6-1,0.8-1.5,0.5l-6.4-3.4c-0.6-0.3-0.8-1-0.5-1.5l5-9.5C777.8,524,778.5,523.8,779,524.1L779,524.1z"/>
	<path id="XMLID_311_" fill-rule="evenodd" clip-rule="evenodd" fill="#0064B1" d="M818.4,471.9c23.3-21.8,50.9-30.7,81.6-29.9v0
		c-4.6,17.2-7.4,33.5-8.2,48.1l0,0c-30.6-0.9-56.8,10-80.5,27.5l-13.3-7L818.4,471.9z"/>
	<path id="XMLID_312_" fill-rule="evenodd" clip-rule="evenodd" fill="#0064B1" d="M991.7,563.8c4.8-31.6-3.4-59.5-21.3-84.5l0,0
		c-11.6,13.5-23.4,25-35,33.9v0c18,24.9,23.8,52.8,22.7,82.3l13.3,7L991.7,563.8z"/>
	<path id="XMLID_313_" fill-rule="evenodd" clip-rule="evenodd" fill="#004884" d="M1005.1,542.4l8.4,4.5c1,0.5,1.4,1.8,0.9,2.8
		l-40.8,77.4c-0.5,1-1.8,1.4-2.8,0.9l-8.4-4.4c-1-0.5-1.4-1.8-0.9-2.8l40.7-77.4C1002.8,542.2,1004,541.8,1005.1,542.4L1005.1,542.4
		z"/>
	<path id="XMLID_314_" fill-rule="evenodd" clip-rule="evenodd" fill="#004884" d="M1011,545.5l14.5-27.6c0.3-0.5,0.1-1.1-0.4-1.4
		l-1.6-0.8c-0.5-0.3-1.1-0.1-1.4,0.4l-14.5,27.6L1011,545.5z"/>
	<path id="XMLID_315_" fill-rule="evenodd" clip-rule="evenodd" fill="#007CC4" d="M1018.2,518.8l7.2,3.8c0.7,0.4,1,1.2,0.6,1.9
		l-4.1,7.8c-0.4,0.7-1.2,1-1.9,0.6l-7.2-3.8c-0.7-0.4-1-1.2-0.6-1.9l4.1-7.8C1016.7,518.7,1017.6,518.4,1018.2,518.8L1018.2,518.8z"
		/>
	<path id="XMLID_316_" fill-rule="evenodd" clip-rule="evenodd" fill="#005497" d="M1010.5,533.5l7.2,3.8c0.7,0.4,1,1.2,0.6,1.9
		l-4.1,7.8c-0.4,0.7-1.2,1-1.9,0.6l-7.2-3.8c-0.7-0.4-1-1.2-0.6-1.9l4.1-7.8C1008.9,533.4,1009.8,533.2,1010.5,533.5L1010.5,533.5z"
		/>
	<path id="XMLID_317_" fill-rule="evenodd" clip-rule="evenodd" fill="#00589E" d="M964.2,622.4l6.4,3.4c0.6,0.3,0.8,1,0.5,1.5
		l-5,9.5c-0.3,0.6-1,0.8-1.5,0.5l-6.4-3.4c-0.6-0.3-0.8-1-0.5-1.5l5-9.5C963,622.3,963.7,622.1,964.2,622.4L964.2,622.4z"/>
	<path id="XMLID_318_" fill-rule="evenodd" clip-rule="evenodd" fill="#FFC907" d="M773.9,540.7c3.7,14.6-1.5,28.9-10,43.1
		c1-4.5,1.2-8.9-0.7-13.1c-11.3,23.6-26.2,45-40.3,66.8c10-24,19.3-48.4,32.3-71.1c-4.5,0.7-8,3.4-11.1,6.8
		C750.9,558.1,759.8,545.8,773.9,540.7L773.9,540.7L773.9,540.7z"/>
	<path id="XMLID_319_" fill-rule="evenodd" clip-rule="evenodd" fill="#FFC907" d="M959.5,639.1c3.7,14.6-1.5,28.9-10,43.1
		c1-4.5,1.2-8.9-0.7-13.1c-11.3,23.6-26.2,45-40.3,66.8c10-24,19.3-48.4,32.3-71.1c-4.5,0.7-8,3.4-11.1,6.8
		C936.5,656.6,945.4,644.3,959.5,639.1L959.5,639.1L959.5,639.1z"/>
	<polygon id="XMLID_322_" fill-rule="evenodd" clip-rule="evenodd" fill="#FBEE2D" points="745.6,500.7 750,514.5 764.5,514.5 
		752.8,523.1 757.3,536.9 745.6,528.3 733.9,536.9 738.3,523.1 726.6,514.5 741.1,514.5 	"/>
	<polygon id="XMLID_323_" fill-rule="evenodd" clip-rule="evenodd" fill="#FBEE2D" points="1173.5,120.5 1178,134.3 1192.5,134.3 
		1180.8,142.8 1185.2,156.6 1173.5,148.1 1161.8,156.6 1166.3,142.8 1154.6,134.3 1169.1,134.3 	"/>
	<polygon id="XMLID_324_" fill-rule="evenodd" clip-rule="evenodd" fill="#FBEE2D" points="1136.4,605.2 1131.7,619 1143.3,627.7 
		1128.8,627.4 1124,641.2 1119.8,627.3 1105.3,627.1 1117.2,618.7 1113,604.9 1124.6,613.6 	"/>
	<polygon id="XMLID_325_" fill-rule="evenodd" clip-rule="evenodd" fill="#FBEE2D" points="836.2,105.1 843.7,111.7 852.3,106.6 
		848.4,115.8 855.9,122.4 846,121.5 842,130.7 839.8,120.9 829.8,120 838.4,114.8 	"/>
	<path id="XMLID_326_" fill-rule="evenodd" clip-rule="evenodd" fill="#FBE006" d="M487.8,770.7c0,0,90.4,126.1,195.4,100.3
		c95.1-23.4,125.6-134.3,125.6-134.3c6-30.3-14.8-45.2-33.9-6.9C748.6,782.3,673.8,964.9,487.8,770.7L487.8,770.7z"/>
	<g id="XMLID_50_">
		<path id="XMLID_77_" fill-rule="evenodd" clip-rule="evenodd" fill="#FFFFFF" d="M545.1,277.9c0-2.5-2-4.6-4.6-4.6
			c-2.5,0-4.6,2.1-4.6,4.6c0,2.5,2.1,4.6,4.6,4.6C543,282.5,545.1,280.4,545.1,277.9L545.1,277.9z"/>
		<path id="XMLID_84_" fill-rule="evenodd" clip-rule="evenodd" fill="#FFFFFF" d="M523.9,195.4c0-1.3-1.1-2.4-2.4-2.4
			c-1.3,0-2.4,1.1-2.4,2.4s1.1,2.4,2.4,2.4C522.8,197.8,523.9,196.7,523.9,195.4L523.9,195.4z"/>
		<path id="XMLID_320_" fill-rule="evenodd" clip-rule="evenodd" fill="#FBE006" d="M651.7,225.5c0,52-41,94.4-92.4,96.7
			c-1.5,0.1-3,0.1-4.4,0.1c-53.5,0-96.8-43.4-96.8-96.9c0-53.5,43.4-96.8,96.8-96.8c19,0,36.7,5.5,51.6,14.9
			C633.7,160.7,651.7,191,651.7,225.5z"/>
		<path id="XMLID_293_" fill-rule="evenodd" clip-rule="evenodd" fill="#FDBA12" d="M651.7,225.5c0,52-41,94.4-92.4,96.7
			c-32.2-14.9-54.5-47.4-54.5-85.2c0-51.8,42-93.8,93.8-93.8c2.7,0,5.3,0.1,7.9,0.3C633.7,160.7,651.7,191,651.7,225.5z"/>
		
			<ellipse id="XMLID_1_" transform="matrix(0.8765 -0.4813 0.4813 0.8765 -68.2029 318.5268)" fill-rule="evenodd" clip-rule="evenodd" fill="#E69519" cx="586.8" cy="292.2" rx="9" ry="6.9"/>
		
			<ellipse id="XMLID_97_" transform="matrix(0.8765 -0.4813 0.4813 0.8765 -56.77 317.2418)" fill-rule="evenodd" clip-rule="evenodd" fill="#E69519" cx="590" cy="269.3" rx="5.8" ry="4.4"/>
		
			<ellipse id="XMLID_181_" transform="matrix(0.9743 -0.2251 0.2251 0.9743 -25.7476 129.4875)" fill-rule="evenodd" clip-rule="evenodd" fill="#E69519" cx="554.9" cy="177.6" rx="5.8" ry="4.4"/>
		
			<ellipse id="XMLID_144_" transform="matrix(0.8765 -0.4813 0.4813 0.8765 -61.776 300.8989)" fill-rule="evenodd" clip-rule="evenodd" fill="#E69519" cx="555.7" cy="270.9" rx="3.9" ry="3"/>
		
			<ellipse id="XMLID_276_" transform="matrix(0.8344 0.5511 -0.5511 0.8344 188.623 -286.8842)" fill-rule="evenodd" clip-rule="evenodd" fill="#E69519" cx="571.8" cy="170.5" rx="3.9" ry="3"/>
		
			<ellipse id="XMLID_291_" transform="matrix(6.944824e-002 0.9976 -0.9976 6.944824e-002 813.5508 -423.6727)" fill-rule="evenodd" clip-rule="evenodd" fill="#E69519" cx="633.9" cy="224.2" rx="8.5" ry="3.7"/>
		
			<ellipse id="XMLID_292_" transform="matrix(6.944820e-002 0.9976 -0.9976 6.944820e-002 794.4949 -420.9914)" fill-rule="evenodd" clip-rule="evenodd" fill="#E69519" cx="622.9" cy="215.4" rx="4.7" ry="2.6"/>
	</g>
	<g id="XMLID_321_">
		<path id="XMLID_183_" fill-rule="evenodd" clip-rule="evenodd" fill="#002932" d="M1209,642.5C1209,642.5,1209,642.5,1209,642.5
			C1209,642.5,1209,642.5,1209,642.5L1209,642.5z M1209.1,642.5L1209.1,642.5L1209.1,642.5L1209.1,642.5z M1209.2,642.6
			C1209.2,642.6,1209.2,642.6,1209.2,642.6C1209.2,642.6,1209.2,642.6,1209.2,642.6L1209.2,642.6z M1209.2,642.6
			C1209.2,642.6,1209.3,642.6,1209.2,642.6C1209.3,642.6,1209.2,642.6,1209.2,642.6L1209.2,642.6z M1209.3,642.7
			C1209.3,642.7,1209.3,642.7,1209.3,642.7C1209.3,642.7,1209.3,642.7,1209.3,642.7L1209.3,642.7z M1209.4,642.7
			C1209.4,642.8,1209.4,642.8,1209.4,642.7C1209.4,642.8,1209.4,642.8,1209.4,642.7L1209.4,642.7z M1209.5,642.8
			C1209.5,642.8,1209.5,642.8,1209.5,642.8C1209.5,642.8,1209.5,642.8,1209.5,642.8L1209.5,642.8z M1209.5,642.9
			C1209.6,642.9,1209.6,642.9,1209.5,642.9C1209.6,642.9,1209.6,642.9,1209.5,642.9L1209.5,642.9z M1209.6,642.9
			c0,0,0.1,0.1,0.1,0.1C1209.7,643,1209.6,642.9,1209.6,642.9L1209.6,642.9z M1209.7,643c0,0,0.1,0.1,0.1,0.1
			C1209.8,643.1,1209.8,643,1209.7,643L1209.7,643z M1209.9,643.1c0,0,0.1,0.1,0.1,0.1C1210,643.2,1209.9,643.1,1209.9,643.1
			L1209.9,643.1z M1210.1,643.2c0,0,0.1,0.1,0.1,0.1C1210.1,643.3,1210.1,643.3,1210.1,643.2L1210.1,643.2z M1210.2,643.3
			c0,0,0.1,0.1,0.1,0.1C1210.3,643.4,1210.3,643.4,1210.2,643.3L1210.2,643.3z M1210.4,643.4c0,0,0.1,0.1,0.1,0.1
			C1210.5,643.5,1210.4,643.5,1210.4,643.4L1210.4,643.4z M1210.5,643.6C1210.5,643.6,1210.6,643.6,1210.5,643.6
			C1210.6,643.6,1210.5,643.6,1210.5,643.6L1210.5,643.6z M1210.6,643.6C1210.6,643.6,1210.6,643.6,1210.6,643.6
			C1210.6,643.6,1210.6,643.6,1210.6,643.6L1210.6,643.6z M1210.7,643.7C1210.7,643.7,1210.7,643.7,1210.7,643.7
			C1210.7,643.7,1210.7,643.7,1210.7,643.7L1210.7,643.7z M1210.8,643.7C1210.8,643.7,1210.8,643.8,1210.8,643.7
			C1210.8,643.8,1210.8,643.7,1210.8,643.7L1210.8,643.7z M1210.8,643.8C1210.9,643.8,1210.9,643.8,1210.8,643.8
			C1210.9,643.8,1210.9,643.8,1210.8,643.8L1210.8,643.8z M1210.9,643.8C1210.9,643.8,1210.9,643.9,1210.9,643.8
			C1210.9,643.9,1210.9,643.8,1210.9,643.8L1210.9,643.8z M1211,643.9C1211,643.9,1211,643.9,1211,643.9
			C1211,643.9,1211,643.9,1211,643.9L1211,643.9z M1211.1,644C1211.1,644,1211.1,644,1211.1,644C1211.1,644,1211.1,644,1211.1,644
			L1211.1,644z M1211.2,644C1211.2,644,1211.2,644,1211.2,644C1211.2,644,1211.2,644,1211.2,644L1211.2,644z M1211.2,644.1
			C1211.2,644.1,1211.3,644.1,1211.2,644.1C1211.3,644.1,1211.2,644.1,1211.2,644.1L1211.2,644.1z M1211.4,644.2L1211.4,644.2
			L1211.4,644.2L1211.4,644.2z"/>
		<path id="XMLID_208_" fill-rule="evenodd" clip-rule="evenodd" fill="#FFFFFF" d="M1197.5,544.2c0-2.1-1.7-3.7-3.7-3.7
			c-2,0-3.7,1.7-3.7,3.7c0,2,1.7,3.7,3.7,3.7C1195.9,548,1197.5,546.3,1197.5,544.2L1197.5,544.2z"/>
		<path id="XMLID_220_" fill-rule="evenodd" clip-rule="evenodd" fill="#FFFFFF" d="M1200.7,637.8c0-1.1-0.9-1.9-1.9-1.9
			c-1.1,0-1.9,0.9-1.9,1.9s0.9,1.9,1.9,1.9C1199.9,639.8,1200.7,638.9,1200.7,637.8L1200.7,637.8z"/>
		<path id="XMLID_222_" fill-rule="evenodd" clip-rule="evenodd" fill="#FFFFFF" d="M1205.5,634c0-0.7-0.5-1.2-1.2-1.2
			s-1.2,0.5-1.2,1.2c0,0.7,0.5,1.2,1.2,1.2S1205.5,634.6,1205.5,634L1205.5,634z"/>
		<path id="XMLID_345_" fill-rule="evenodd" clip-rule="evenodd" fill="#F05C47" d="M1250.2,529.3c-6.3-1.8-12.9-2.7-19.7-2.7
			c-39.8,0-72,32.3-72,72c0,19.2,7.5,36.6,19.7,49.5c16.7-2.1,33-7.7,46.7-15.3C1260.2,612.4,1269.1,563.5,1250.2,529.3z"/>
		<path id="XMLID_346_" fill-rule="evenodd" clip-rule="evenodd" fill="#EE3832" d="M1250.2,529.3c18.9,34.2,10,83.2-25.4,103.5
			c-13.7,7.6-30,13.2-46.7,15.3c13.1,13.9,31.7,22.6,52.4,22.6c39.8,0,72-32.3,72-72C1302.5,565.6,1280.4,537.8,1250.2,529.3z"/>
		
			<ellipse id="XMLID_294_" transform="matrix(-0.836 -0.5487 0.5487 -0.836 1871.5499 1681.7513)" fill-rule="evenodd" clip-rule="evenodd" fill="#EE3832" cx="1187.1" cy="561.2" rx="6.8" ry="10.6"/>
		
			<ellipse id="XMLID_347_" transform="matrix(-0.836 -0.5487 0.5487 -0.836 1979.8463 1877.329)" fill-rule="evenodd" clip-rule="evenodd" fill="#C32C27" cx="1270.4" cy="642.8" rx="4.4" ry="6.9"/>
		
			<ellipse id="XMLID_349_" transform="matrix(0.8577 -0.5142 0.5142 0.8577 -112.2571 743.1868)" fill-rule="evenodd" clip-rule="evenodd" fill="#C32C27" cx="1286.3" cy="574.4" rx="4.4" ry="6.9"/>
		
			<ellipse id="XMLID_348_" transform="matrix(-0.836 -0.5487 0.5487 -0.836 1989.2606 1850.8737)" fill-rule="evenodd" clip-rule="evenodd" fill="#C32C27" cx="1271.2" cy="628.2" rx="2.2" ry="3.5"/>
		
			<ellipse id="XMLID_342_" transform="matrix(-0.836 -0.5487 0.5487 -0.836 1855.2086 1720.7258)" fill-rule="evenodd" clip-rule="evenodd" fill="#EE3832" cx="1184.7" cy="583.1" rx="3.4" ry="5.3"/>
		
			<ellipse id="XMLID_344_" transform="matrix(-0.8046 0.5938 -0.5938 -0.8046 2511.1396 430.611)" fill-rule="evenodd" clip-rule="evenodd" fill="#EE3832" cx="1184.7" cy="628.4" rx="3.4" ry="5.3"/>
		
			<ellipse id="XMLID_343_" transform="matrix(-0.836 -0.5487 0.5487 -0.836 1921.9252 1717.7891)" fill-rule="evenodd" clip-rule="evenodd" fill="#EE3832" cx="1217.6" cy="571.7" rx="1.9" ry="2.9"/>
	</g>
	<g id="XMLID_351_">
		<path id="XMLID_352_" fill-rule="evenodd" clip-rule="evenodd" fill="#FBE006" d="M161.3,315.1c-21.3,18-0.9,42.1,20.3,25.6
			c21.2-16.4,64.8-49.4,64.8-49.4l-20.7,3.5l87.2-71.9l-119,79.8l6.6-15.5L161.3,315.1z"/>
		<path id="XMLID_33_" fill-rule="evenodd" clip-rule="evenodd" fill="#FFFFFF" d="M173.8,333.5c0-1.1-0.9-1.9-1.9-1.9
			c-1.1,0-1.9,0.9-1.9,1.9s0.9,1.9,1.9,1.9C173,335.4,173.8,334.6,173.8,333.5L173.8,333.5z"/>
		<circle id="XMLID_350_" fill-rule="evenodd" clip-rule="evenodd" fill="#F05A22" cx="170" cy="329" r="11.9"/>
	</g>
	<g id="XMLID_145_">
		<path id="XMLID_383_" fill="#FFFFFF" d="M1178.3,836.4l-70.6-78.2l32.2-54.7l0.4,0.2l65.3,26.3l-0.1,0.4L1178.3,836.4z M1109,758
			l68.9,76.3l26.6-103.9l-64.1-25.8L1109,758z"/>
	</g>
	<g id="XMLID_146_">
		<polygon id="XMLID_382_" fill="#FFFFFF" points="627.3,551.1 627.1,550.9 531.5,479.4 469.4,455.8 442.2,501.5 441.3,501 
			469,454.6 532,478.5 627.4,549.9 678.8,522.1 679.2,523 		"/>
	</g>
	<g id="XMLID_149_">
		
			<rect id="XMLID_381_" x="632.2" y="492.6" transform="matrix(0.9834 0.1816 -0.1816 0.9834 105.3052 -106.2388)" fill="#FFFFFF" width="1" height="58.4"/>
	</g>
	<g id="XMLID_150_">
		<defs>
			<path id="XMLID_147_" d="M1337.1,167.2h62.9V0h-196.9v33.1C1203.1,107.2,1263.1,167.2,1337.1,167.2z"/>
		</defs>
		<clipPath id="XMLID_386_">
			<use xlink:href="#XMLID_147_"  overflow="visible"/>
		</clipPath>
		<g id="XMLID_148_" clip-path="url(#XMLID_386_)">
			<g id="XMLID_327_">
				<g id="Instance0_1_">
					<path id="_x3C_Path_x3E__22_" d="M1519.3,38.5h-0.2c0,0,0,0,0,0l0,0.2l0,0c0,0,0,0,0,0l0,0h0h0h0c0,0,0,0,0,0c0,0,0,0,0,0
						l0,0.2l0,0c0,0,0,0,0,0h0.1c0,0,0,0,0,0l0,0l0-0.2c0,0,0,0,0,0c0,0,0,0,0,0h0h0h0l0,0c0,0,0,0,0,0v0l0,0L1519.3,38.5
						C1519.3,38.5,1519.3,38.5,1519.3,38.5z"/>
					<circle id="_x3C_Path_x3E__21_" cx="1519.2" cy="38.4" r="0.1"/>
				</g>
				<g id="Instance1_1_">
					<path id="_x3C_Path_x3E__20_" d="M1519.6,38.7h-0.2c0,0,0,0,0,0l0,0.1l0,0c0,0,0,0,0,0l0,0h0h0h0c0,0,0,0,0,0c0,0,0,0,0,0
						l0,0.1l0,0c0,0,0,0,0,0h0.1c0,0,0,0,0,0l0,0l0-0.1c0,0,0,0,0,0c0,0,0,0,0,0h0h0h0l0,0c0,0,0,0,0,0v0l0,0L1519.6,38.7
						C1519.6,38.7,1519.6,38.7,1519.6,38.7z"/>
					<circle id="_x3C_Path_x3E__19_" cx="1519.5" cy="38.6" r="0.1"/>
				</g>
				<g id="Instance2_1_">
					<path id="_x3C_Path_x3E__18_" d="M1520,38.4h-0.3c0,0-0.1,0-0.1,0.1l0,0.2l0,0c0,0,0,0,0,0l0,0h0h0h0c0,0,0,0,0,0c0,0,0,0,0,0
						l0,0.2l0,0c0,0,0,0,0,0h0.1c0,0,0,0,0,0l0,0l0-0.2c0,0,0,0,0,0c0,0,0,0,0,0h0h0h0l0,0c0,0,0,0,0,0v0l0,0L1520,38.4
						C1520.1,38.4,1520,38.4,1520,38.4z"/>
					<circle id="_x3C_Path_x3E__17_" cx="1519.9" cy="38.2" r="0.1"/>
				</g>
			</g>
			<circle id="XMLID_353_" fill-rule="evenodd" clip-rule="evenodd" fill="#F8963C" cx="1334.3" cy="31.1" r="124.1"/>
			<g id="XMLID_367_">
				<defs>
					<circle id="XMLID_366_" cx="1334.3" cy="31.1" r="124.1"/>
				</defs>
				<clipPath id="XMLID_387_">
					<use xlink:href="#XMLID_366_"  overflow="visible"/>
				</clipPath>
				<g id="XMLID_3_" clip-path="url(#XMLID_387_)">
					<path id="XMLID_159_" fill="#FFFFFF" d="M1317.6,180.3c-1.7,0.4-2.8,2.1-2.4,3.8c0.4,1.7,2.1,2.8,3.8,2.4
						c1.7-0.4,2.8-2.1,2.4-3.8C1321,181,1319.3,179.9,1317.6,180.3z"/>
					<path id="XMLID_160_" fill="#FFFFFF" d="M1435.6,116.5c-1.7,0.4-2.8,2.1-2.4,3.8c0.4,1.7,2.1,2.8,3.8,2.4
						c1.7-0.4,2.8-2.1,2.4-3.8C1439,117.2,1437.3,116.1,1435.6,116.5z"/>
					<path id="XMLID_161_" fill="#FFFFFF" d="M1325.3,173.3c-1.1,0.2-1.7,1.3-1.5,2.4c0.2,1.1,1.3,1.8,2.4,1.5
						c1.1-0.2,1.8-1.3,1.5-2.4S1326.4,173.1,1325.3,173.3z"/>
					
						<ellipse id="XMLID_162_" transform="matrix(-0.2129 -0.9771 0.9771 -0.2129 1622.1565 1414.2729)" fill="#F37439" cx="1380.7" cy="53.8" rx="12" ry="22.6"/>
					<path id="XMLID_163_" fill="#F37439" d="M1423.2,44.5c20.4-4.4,47.1-15.3,47.1-15.3l-1.5-6.9c0,0-23.1,5-45.7,10
						s-24.3-10.7-48.3-5.5c-24,5.2-22.4,20.9-46.7,26.2c-24.3,5.3-113.1,31.9-113.1,31.9l9,3c0,0,88.6-19.3,111.6-24.3
						c23.1-5,18.5-21.8,41.4-26.8C1399.9,31.8,1402.8,49,1423.2,44.5z"/>
					<path id="XMLID_164_" fill="#F37439" d="M1387.2,83.7c26.1-3.9,14.9-13.2,40.4-18.8c25.5-5.6,33.4-7.3,33.4-7.3l3.8-10.4
						c0,0-28.3,6.2-39.1,8.5c-10.8,2.4-14.1,12.7-36.2,17.5c-22.1,4.8-34.9-3.3-45.8,0.9c-10.9,4.2-128.1,26.1-131.2,28.6l2,9
						c0,0,55.9-10.7,100.3-21.9S1361.1,87.6,1387.2,83.7z"/>
					<path id="XMLID_165_" fill="#F37439" d="M1370.9,16.6c29-5.7,24.9,5.6,52-0.3s58.9-17.8,58.9-17.8l-52.9,8.7
						c0,0-16.7-5.4,1.3-8.8c18-3.5,37.1-12.2,37.1-12.2l2.8-12.4c0,0-54.8,20.1-74.7,24.5c-20,4.4-33.2,14.5-41,16.6
						c-7.7,2.1,9.4-1.9-19.8,9.6c-29.2,11.6-108.3,20.3-133.8,24.6c-25.4,4.3,2.3,10.5,2.3,10.5c1.8,0.1,95.2-12.2,127.1-23.2
						C1362.2,25.5,1341.9,22.3,1370.9,16.6z"/>
					<path id="XMLID_166_" fill="#F37439" d="M1398-10.5c39.6-10.4,68.9-22.1,68.9-22.1s-68,8.6-95.9,20.9s-10.2,18.4-66.1,28.8
						c-56,10.4-107.5,16.1-107.5,16.1l-4.6,8.3c0,0,109.4-12.8,140.7-22C1364.7,10.2,1358.4,0,1398-10.5z"/>
					<path id="XMLID_167_" fill="#F37439" d="M1331.3-22.2c-53.4,16-129.4,28.5-129.4,28.5l-7.4,13.9c0,0,91.3-8.8,129.5-24.5
						c38.2-15.7,51.9-31.4,74.1-36.3c22.2-4.8,71.7-15.6,71.7-15.6l-10.7-11.3c0,0-51.8,9.5-63.9,13.9
						C1383.2-49.1,1384.7-38.2,1331.3-22.2z"/>
					<path id="XMLID_168_" fill="#F37439" d="M1281.1-29.4c42.5-13.5,87.3-29.3,65.4-25.6c-21.9,3.7-45.7,15-66.7,19.4
						c-21,4.4-12.7,1.6-3.1-4.9c9.7-6.5,7.9-6.1-26.9,1.2c-34.8,7.3-51.3,10.8-51.3,10.8l-4.5,17.4
						C1195.2-9.7,1238.6-15.9,1281.1-29.4z"/>
					<path id="XMLID_169_" fill="#F37439" d="M1308.2-64.6c6.8-1,72.9-16.8,95.1-22.5c22.2-5.8,54.8-21,22.4-14
						C1393.4-94.1,1253.9-56.4,1308.2-64.6z"/>
					<path id="XMLID_170_" fill="#F37439" d="M1320.4,115.7c11.9-6.1,33.6-6.5,43.4-16c9.8-9.4-112.2,23.8-135.1,29.4l-3.9,0.8
						c0,0,36,14.9,45,13.9c9-1.1,38.4-6.6,59.2-15.6C1349.8,119.2,1308.5,121.8,1320.4,115.7z"/>
					<path id="XMLID_173_" fill="#F37439" d="M1480.2,74.4c-4.3,1-82.2,23.5-100.3,32.4c-18.1,8.9,21.2,10.1,53.5-0.9
						c32.2-11,58.7-23,58.7-23L1480.2,74.4z"/>
					<path id="XMLID_174_" fill="#F37439" d="M1293.7,153.9l49.3,12.4l86.7-18.9l13.9-21.4c-21.3,3.7-44.2,7.3-77.3,12
						C1333.1,142.8,1293.7,153.9,1293.7,153.9z"/>
				</g>
			</g>
		</g>
	</g>
</g>
</svg>
