<?xml version="1.0" encoding="utf-8"?>
<!-- Generator: Adobe Illustrator 22.1.0, SVG Export Plug-In . SVG Version: 6.00 Build 0)  -->
<svg version="1.1" xmlns="http://www.w3.org/2000/svg" xmlns:xlink="http://www.w3.org/1999/xlink" x="0px" y="0px"
	 viewBox="0 0 2850 1800" enable-background="new 0 0 2850 1800" xml:space="preserve">
<g id="Layer_1_1_">
	<linearGradient id="SVGID_1_" gradientUnits="userSpaceOnUse" x1="986.3646" y1="-1.4477" x2="1901.3501" y2="1878.9558">
		<stop  offset="0.0054" style="stop-color:#44168A"/>
		<stop  offset="1" style="stop-color:#FE6262"/>
	</linearGradient>
	<rect fill="url(#SVGID_1_)" width="2850" height="1800"/>
	<g>
		<g>
			<g>
				<g>
					<path fill="#FFFFFF" d="M157.619,112.443c1.932,0,1.935-3.002,0-3.002C155.687,109.441,155.684,112.443,157.619,112.443
						L157.619,112.443z"/>
				</g>
			</g>
			<g>
				<g>
					<path fill="#FFFFFF" d="M129.983,269.266c1.932,0,1.935-3.002,0-3.002C128.052,266.264,128.049,269.266,129.983,269.266
						L129.983,269.266z"/>
				</g>
			</g>
			<path fill="#FFFFFF" d="M367.993,170.904c0,1.537,0,3.075,0,4.612c0,1.933,3,1.936,3,0c0-1.537,0-3.075,0-4.612
				C370.993,168.971,367.993,168.968,367.993,170.904L367.993,170.904z"/>
			<path fill="#FFFFFF" d="M283.48,355.401c0-1.537,0-3.075,0-4.612c0-1.933-3-1.936-3,0c0,1.537,0,3.075,0,4.612
				C280.48,357.334,283.48,357.337,283.48,355.401L283.48,355.401z"/>
			<path fill="#FFFFFF" d="M257.45,217.028c0,1.537,0,3.075,0,4.613c0,1.933,3,1.936,3,0c0-1.538,0-3.075,0-4.613
				C260.45,215.095,257.45,215.092,257.45,217.028L257.45,217.028z"/>
			<g>
				<g>
					<path fill="#FFFFFF" d="M719.547,89.381c1.932,0,1.935-3.002,0-3.002C717.615,86.379,717.612,89.381,719.547,89.381
						L719.547,89.381z"/>
				</g>
			</g>
			<g>
				<g>
					<path fill="#FFFFFF" d="M742.576,379.964c1.932,0,1.935-3.002,0-3.002C740.645,376.962,740.642,379.964,742.576,379.964
						L742.576,379.964z"/>
				</g>
			</g>
			<path fill="#FFFFFF" d="M688.805,438.425c0-1.538,0-3.075,0-4.612c0-1.933-3-1.936-3,0c0,1.537,0,3.075,0,4.612
				C685.805,440.358,688.805,440.361,688.805,438.425L688.805,438.425z"/>
			<g>
				<g>
					<path fill="#FFFFFF" d="M549.126,546.012c1.932,0,1.935-3.002,0-3.002C547.194,543.01,547.191,546.012,549.126,546.012
						L549.126,546.012z"/>
				</g>
			</g>
			<path fill="#FFFFFF" d="M595.186,324.616c1.535,0,3.071,0,4.606,0c1.93,0,1.933-3.004,0-3.004c-1.535,0-3.071,0-4.606,0
				C593.255,321.612,593.252,324.616,595.186,324.616L595.186,324.616z"/>
			<path fill="#FFFFFF" d="M1043.025,382.014c-1.535-1.537-3.071-3.075-4.606-4.612c-1.367-1.369-3.489,0.755-2.121,2.124
				c1.535,1.537,3.071,3.075,4.606,4.612C1042.27,385.507,1044.392,383.383,1043.025,382.014L1043.025,382.014z"/>
			<path fill="#FFFFFF" d="M1006.616,687.497c0-1.538,0-3.075,0-4.613c0-1.933-3-1.936-3,0c0,1.538,0,3.075,0,4.613
				C1003.616,689.43,1006.616,689.433,1006.616,687.497L1006.616,687.497z"/>
			<g>
				<g>
					<path fill="#FFFFFF" d="M779.424,813.534c1.932,0,1.935-3.002,0-3.002C777.493,810.531,777.489,813.534,779.424,813.534
						L779.424,813.534z"/>
				</g>
			</g>
			<path fill="#FFFFFF" d="M555.232,987.305c0-1.537,0-3.075,0-4.612c0-1.933-3-1.936-3,0c0,1.537,0,3.075,0,4.612
				C552.232,989.238,555.232,989.241,555.232,987.305L555.232,987.305z"/>
			<g>
				<g>
					<path fill="#FFFFFF" d="M691.911,688.998c1.932,0,1.935-3.002,0-3.002C689.979,685.996,689.976,688.998,691.911,688.998
						L691.911,688.998z"/>
				</g>
			</g>
			<path fill="#FFFFFF" d="M248.678,808.482c1.535,1.537,3.071,3.075,4.606,4.612c1.367,1.369,3.489-0.755,2.121-2.124
				c-1.535-1.537-3.071-3.075-4.606-4.612C249.432,804.989,247.31,807.113,248.678,808.482L248.678,808.482z"/>
			<path fill="#FFFFFF" d="M124.743,913.25c-0.657,4.819,7.614,4.444,6.653-0.135c-0.397-1.891-3.289-1.091-2.893,0.799
				c-0.072-0.342-0.042,0.067,0.009-0.134c0.039-0.155-0.076,0.087,0.07-0.16c-0.126,0.212,0.163-0.069,0.03-0.017
				c-0.095,0.037-0.18,0.28,0.022-0.003c-0.02,0.028-0.156,0.105-0.19,0.107c0.285-0.015,0.105-0.033-0.012-0.009
				c-0.095,0.02-0.19,0.048-0.285,0.068c0.201-0.041,0.161-0.001-0.017-0.01c-0.146-0.008-0.588-0.073-0.252,0.005
				c-0.094-0.022-0.186-0.043-0.278-0.071c-0.106-0.036-0.073-0.019,0.099,0.051c-0.032-0.016-0.064-0.033-0.096-0.049
				c-0.077-0.217,0.051,0.181,0.006,0.023c-0.026-0.022-0.05-0.046-0.072-0.072c-0.076-0.082-0.048-0.048,0.082,0.104
				c0.017,0.083,0.088,0.267,0.033,0.076c0.108,0.372,0.028-0.095-0.016,0.226c0.11-0.803-0.193-1.613-1.048-1.848
				C125.888,912.008,124.853,912.441,124.743,913.25L124.743,913.25z"/>
			<g>
				<g>
					<path fill="#FFFFFF" d="M208.285,573.687c1.932,0,1.935-3.002,0-3.002C206.353,570.685,206.35,573.687,208.285,573.687
						L208.285,573.687z"/>
				</g>
			</g>
			<path fill="#FFFFFF" d="M425.826,783.296c-1.535-1.537-3.071-3.075-4.606-4.612c-1.367-1.369-3.489,0.755-2.121,2.124
				c1.535,1.537,3.071,3.075,4.606,4.612C425.071,786.789,427.193,784.665,425.826,783.296L425.826,783.296z"/>
			<g>
				<g>
					<path fill="#FFFFFF" d="M1037.358,121.668c1.932,0,1.935-3.002,0-3.002C1035.427,118.666,1035.423,121.668,1037.358,121.668
						L1037.358,121.668z"/>
				</g>
			</g>
			<g>
				<g>
					<path fill="#FFFFFF" d="M1272.262,250.816c1.932,0,1.935-3.002,0-3.002C1270.331,247.814,1270.327,250.816,1272.262,250.816
						L1272.262,250.816z"/>
				</g>
			</g>
			<g>
				<g>
					<path fill="#FFFFFF" d="M1216.991,555.237c1.932,0,1.935-3.002,0-3.002C1215.059,552.235,1215.056,555.237,1216.991,555.237
						L1216.991,555.237z"/>
				</g>
			</g>
			<path fill="#FFFFFF" d="M1130.231,967.55c0-1.791,0-3.581,0-5.372c0-1.933-3-1.936-3,0c0,1.791,0,3.582,0,5.372
				C1127.231,969.484,1130.231,969.487,1130.231,967.55L1130.231,967.55z"/>
			<g>
				<g>
					<path fill="#FFFFFF" d="M903.419,1253.773c1.932,0,1.935-3.002,0-3.002C901.488,1250.771,901.485,1253.773,903.419,1253.773
						L903.419,1253.773z"/>
				</g>
			</g>
			<path fill="#FFFFFF" d="M345.505,1296.751c1.788,0,3.576,0,5.365,0c1.93,0,1.933-3.004,0-3.004c-1.788,0-3.576,0-5.365,0
				C343.575,1293.747,343.571,1296.751,345.505,1296.751L345.505,1296.751z"/>
			<path fill="#FFFFFF" d="M276.826,1471.466c-1.788-1.791-3.576-3.581-5.365-5.372c-1.367-1.369-3.489,0.755-2.121,2.124
				c1.788,1.791,3.576,3.581,5.365,5.372C276.072,1474.959,278.194,1472.835,276.826,1471.466L276.826,1471.466z"/>
			<path fill="#FFFFFF" d="M235.241,1122.776c0.05,0.367,0.039-0.205,0.024,0.056c-0.015,0.114-0.005,0.101,0.03-0.041
				c-0.016,0.048-0.033,0.097-0.05,0.145c0.101,0.179-0.264-0.045,0.027-0.012c0.109,0.012-0.204,0.103,0.043-0.012
				c0.134-0.062,0.12-0.048-0.007-0.003c0.103-0.036,0.213-0.068,0.321-0.089c0.171-0.033-0.215,0.003,0.076-0.013
				c0.116-0.006,0.232-0.004,0.348-0.004c0.18,0,0.554,0.069,0.712,0.215c-0.154-0.142-0.089-0.034,0.025,0.036
				c0.06,0.037-0.038-0.179,0.003,0.03c-0.024-0.12-0.067-0.186-0.037-0.021c-0.067-0.364-0.09,0.158-0.029-0.131
				c-0.396,1.886,2.495,2.692,2.893,0.799c1.039-4.948-7.98-5.35-7.272-0.157c0.11,0.804,1.139,1.244,1.845,1.049
				C235.06,1124.385,235.351,1123.583,235.241,1122.776L235.241,1122.776z"/>
			<path fill="#FFFFFF" d="M110.964,1499.389c0-1.791,0-3.581,0-5.372c0-1.933-3-1.936-3,0c0,1.791,0,3.581,0,5.372
				C107.964,1501.322,110.964,1501.325,110.964,1499.389L110.964,1499.389z"/>
			<path fill="#FFFFFF" d="M724.889,1177.062c0,1.791,0,3.581,0,5.372c0,1.933,3,1.936,3,0c0-1.791,0-3.581,0-5.372
				C727.889,1175.13,724.889,1175.126,724.889,1177.062L724.889,1177.062z"/>
			<path fill="#FFFFFF" d="M652.785,1526.249c0-1.791,0-3.581,0-5.372c0-1.933-3-1.936-3,0c0,1.791,0,3.581,0,5.372
				C649.785,1528.182,652.785,1528.185,652.785,1526.249L652.785,1526.249z"/>
			<g>
				<g>
					<path fill="#FFFFFF" d="M1432.224,728.913c1.932,0,1.935-3.002,0-3.002C1430.292,725.911,1430.289,728.913,1432.224,728.913
						L1432.224,728.913z"/>
				</g>
			</g>
			<g>
				<g>
					<path fill="#FFFFFF" d="M1936.753,299.65c1.932,0,1.935-3.002,0-3.002C1934.821,296.648,1934.818,299.65,1936.753,299.65
						L1936.753,299.65z"/>
				</g>
			</g>
			<path fill="#FFFFFF" d="M2324.746,595.516c1.264-1.266,2.529-2.533,3.793-3.799c1.367-1.369-0.754-3.494-2.121-2.124
				c-1.265,1.266-2.529,2.533-3.793,3.799C2321.258,594.761,2323.379,596.886,2324.746,595.516L2324.746,595.516z"/>
			<g>
				<g>
					<path fill="#FFFFFF" d="M2050.557,907.456c1.932,0,1.935-3.002,0-3.002C2048.625,904.454,2048.622,907.456,2050.557,907.456
						L2050.557,907.456z"/>
				</g>
			</g>
			<path fill="#FFFFFF" d="M2756.391,74.336c-0.767,0.768-1.534,1.536-2.301,2.304c-1.367,1.369,0.754,3.494,2.121,2.124
				c0.767-0.768,1.534-1.536,2.301-2.304C2759.879,75.091,2757.759,72.966,2756.391,74.336c-0.767,0.768-1.534,1.536-2.301,2.304
				c-1.367,1.369,0.754,3.494,2.121,2.124c0.767-0.768,1.534-1.536,2.301-2.304C2759.879,75.091,2757.759,72.966,2756.391,74.336
				L2756.391,74.336z"/>
			<path fill="#FFFFFF" d="M2485.304,229.771c0,1.266,0,2.533,0,3.799c0,1.933,3,1.936,3,0c0-1.266,0-2.533,0-3.799
				C2488.304,227.838,2485.304,227.835,2485.304,229.771L2485.304,229.771z"/>
			<g>
				<g>
					<path fill="#FFFFFF" d="M1557.408,189.485c1.932,0,1.935-3.002,0-3.002C1555.476,186.483,1555.473,189.485,1557.408,189.485
						L1557.408,189.485z"/>
				</g>
			</g>
			<path fill="#FFFFFF" d="M1654.574,573.023c-1.265-1.266-2.529-2.533-3.793-3.799c-1.367-1.369-3.489,0.755-2.121,2.124
				c1.264,1.266,2.529,2.533,3.793,3.799C1653.82,576.516,1655.942,574.392,1654.574,573.023L1654.574,573.023z"/>
			<path fill="#FFFFFF" d="M1699.339,871.946c0-2.649,0-5.298,0-7.947c0-1.933-3-1.936-3,0c0,2.649,0,5.298,0,7.947
				C1696.339,873.879,1699.339,873.882,1699.339,871.946L1699.339,871.946z"/>
			<g>
				<g>
					<path fill="#FFFFFF" d="M1451.819,1254.917c1.932,0,1.935-3.002,0-3.002
						C1449.887,1251.915,1449.884,1254.917,1451.819,1254.917L1451.819,1254.917z"/>
				</g>
			</g>
		</g>
		<g>
			<g>
				<g>
					<path fill="#FFFFFF" d="M1252.93,68.474c1.932,0,1.935-3.002,0-3.002C1250.998,65.472,1250.995,68.474,1252.93,68.474
						L1252.93,68.474z"/>
				</g>
			</g>
			<g>
				<g>
					<path fill="#FFFFFF" d="M1225.294,225.297c1.932,0,1.935-3.002,0-3.002C1223.363,222.295,1223.359,225.297,1225.294,225.297
						L1225.294,225.297z"/>
				</g>
			</g>
			<path fill="#FFFFFF" d="M1463.304,126.935c0,1.537,0,3.075,0,4.612c0,1.933,3,1.936,3,0c0-1.537,0-3.075,0-4.612
				C1466.304,125.002,1463.304,124.998,1463.304,126.935L1463.304,126.935z"/>
			<path fill="#FFFFFF" d="M1378.791,311.432c0-1.537,0-3.075,0-4.612c0-1.933-3-1.936-3,0c0,1.537,0,3.075,0,4.612
				C1375.791,313.365,1378.791,313.368,1378.791,311.432L1378.791,311.432z"/>
			<path fill="#FFFFFF" d="M1352.761,173.059c0,1.538,0,3.075,0,4.613c0,1.933,3,1.936,3,0c0-1.537,0-3.075,0-4.613
				C1355.761,171.126,1352.761,171.123,1352.761,173.059L1352.761,173.059z"/>
			<g>
				<g>
					<path fill="#FFFFFF" d="M1814.857,45.412c1.932,0,1.935-3.002,0-3.002C1812.926,42.41,1812.922,45.412,1814.857,45.412
						L1814.857,45.412z"/>
				</g>
			</g>
			<g>
				<g>
					<path fill="#FFFFFF" d="M1837.887,335.995c1.932,0,1.935-3.002,0-3.002C1835.956,332.993,1835.952,335.995,1837.887,335.995
						L1837.887,335.995z"/>
				</g>
			</g>
			<path fill="#FFFFFF" d="M1784.115,394.456c0-1.538,0-3.075,0-4.612c0-1.933-3-1.936-3,0c0,1.538,0,3.075,0,4.612
				C1781.116,396.389,1784.115,396.392,1784.115,394.456L1784.115,394.456z"/>
			<g>
				<g>
					<path fill="#FFFFFF" d="M1644.437,502.043c1.932,0,1.935-3.002,0-3.002C1642.505,499.041,1642.502,502.043,1644.437,502.043
						L1644.437,502.043z"/>
				</g>
			</g>
			<path fill="#FFFFFF" d="M1690.496,280.647c1.535,0,3.071,0,4.606,0c1.93,0,1.933-3.004,0-3.004c-1.535,0-3.071,0-4.606,0
				C1688.566,277.643,1688.563,280.647,1690.496,280.647L1690.496,280.647z"/>
			<path fill="#FFFFFF" d="M2138.335,338.045c-1.535-1.538-3.071-3.075-4.606-4.613c-1.367-1.369-3.489,0.755-2.121,2.124
				c1.535,1.537,3.071,3.075,4.606,4.612C2137.581,341.538,2139.703,339.414,2138.335,338.045L2138.335,338.045z"/>
			<path fill="#FFFFFF" d="M2101.927,643.528c0-1.538,0-3.075,0-4.612c0-1.933-3-1.936-3,0c0,1.537,0,3.075,0,4.612
				C2098.927,645.46,2101.927,645.464,2101.927,643.528L2101.927,643.528z"/>
			<g>
				<g>
					<path fill="#FFFFFF" d="M1874.735,769.564c1.932,0,1.935-3.002,0-3.002C1872.803,766.562,1872.8,769.564,1874.735,769.564
						L1874.735,769.564z"/>
				</g>
			</g>
			<path fill="#FFFFFF" d="M1650.543,943.336c0-1.537,0-3.075,0-4.612c0-1.933-3-1.936-3,0c0,1.537,0,3.075,0,4.612
				C1647.543,945.269,1650.543,945.272,1650.543,943.336L1650.543,943.336z"/>
			<g>
				<g>
					<path fill="#FFFFFF" d="M1787.222,645.029c1.932,0,1.935-3.002,0-3.002C1785.29,642.027,1785.287,645.029,1787.222,645.029
						L1787.222,645.029z"/>
				</g>
			</g>
			<path fill="#FFFFFF" d="M1343.989,764.513c1.535,1.537,3.071,3.075,4.606,4.612c1.367,1.369,3.489-0.755,2.121-2.124
				c-1.535-1.537-3.071-3.075-4.606-4.612C1344.743,761.02,1342.621,763.143,1343.989,764.513L1343.989,764.513z"/>
			<path fill="#FFFFFF" d="M1220.054,869.281c-0.657,4.819,7.614,4.444,6.653-0.135c-0.397-1.891-3.289-1.091-2.893,0.799
				c-0.072-0.342-0.042,0.067,0.009-0.134c0.039-0.155-0.077,0.087,0.07-0.16c-0.125,0.212,0.163-0.069,0.03-0.017
				c-0.095,0.037-0.18,0.28,0.022-0.003c-0.02,0.028-0.156,0.105-0.19,0.107c0.285-0.015,0.105-0.033-0.012-0.009
				c-0.095,0.02-0.19,0.048-0.285,0.068c0.201-0.041,0.161-0.001-0.017-0.01c-0.146-0.008-0.588-0.073-0.252,0.005
				c-0.094-0.022-0.186-0.043-0.278-0.071c-0.106-0.036-0.073-0.019,0.099,0.051c-0.032-0.016-0.064-0.033-0.096-0.049
				c-0.077-0.217,0.051,0.181,0.006,0.023c-0.026-0.022-0.05-0.046-0.072-0.072c-0.075-0.082-0.048-0.048,0.082,0.104
				c0.017,0.083,0.088,0.267,0.033,0.076c0.108,0.372,0.028-0.095-0.016,0.226c0.109-0.803-0.193-1.613-1.048-1.848
				C1221.199,868.039,1220.164,868.472,1220.054,869.281L1220.054,869.281z"/>
			<g>
				<g>
					<path fill="#FFFFFF" d="M1303.595,529.717c1.932,0,1.935-3.002,0-3.002C1301.664,526.716,1301.661,529.717,1303.595,529.717
						L1303.595,529.717z"/>
				</g>
			</g>
			<path fill="#FFFFFF" d="M1521.136,739.327c-1.535-1.538-3.071-3.075-4.606-4.613c-1.367-1.369-3.489,0.755-2.121,2.124
				c1.535,1.538,3.071,3.075,4.606,4.612C1520.382,742.82,1522.504,740.696,1521.136,739.327L1521.136,739.327z"/>
			<g>
				<g>
					<path fill="#FFFFFF" d="M2132.669,77.699c1.932,0,1.935-3.002,0-3.002C2130.737,74.697,2130.734,77.699,2132.669,77.699
						L2132.669,77.699z"/>
				</g>
			</g>
			<g>
				<g>
					<path fill="#FFFFFF" d="M2367.573,206.847c1.932,0,1.935-3.002,0-3.002C2365.641,203.845,2365.638,206.847,2367.573,206.847
						L2367.573,206.847z"/>
				</g>
			</g>
			<g>
				<g>
					<path fill="#FFFFFF" d="M2312.301,511.268c1.932,0,1.935-3.002,0-3.002C2310.37,508.266,2310.366,511.268,2312.301,511.268
						L2312.301,511.268z"/>
				</g>
			</g>
			<path fill="#FFFFFF" d="M2225.542,923.581c0-1.791,0-3.582,0-5.372c0-1.933-3-1.936-3,0c0,1.791,0,3.582,0,5.372
				C2222.542,925.514,2225.542,925.517,2225.542,923.581L2225.542,923.581z"/>
			<g>
				<g>
					<path fill="#FFFFFF" d="M1998.73,1209.804c1.932,0,1.935-3.002,0-3.002C1996.799,1206.802,1996.795,1209.804,1998.73,1209.804
						L1998.73,1209.804z"/>
				</g>
			</g>
			<path fill="#FFFFFF" d="M1440.816,1252.781c1.788,0,3.576,0,5.365,0c1.93,0,1.933-3.004,0-3.004c-1.788,0-3.576,0-5.365,0
				C1438.885,1249.777,1438.882,1252.781,1440.816,1252.781L1440.816,1252.781z"/>
			<path fill="#FFFFFF" d="M1372.137,1427.497c-1.788-1.791-3.576-3.581-5.365-5.372c-1.367-1.369-3.489,0.755-2.121,2.124
				c1.788,1.791,3.576,3.581,5.365,5.372C1371.383,1430.99,1373.504,1428.866,1372.137,1427.497L1372.137,1427.497z"/>
			<path fill="#FFFFFF" d="M1330.552,1078.806c0.05,0.367,0.04-0.205,0.024,0.056c-0.015,0.114-0.005,0.101,0.03-0.04
				c-0.016,0.048-0.033,0.097-0.05,0.145c0.1,0.179-0.265-0.045,0.027-0.012c0.109,0.012-0.204,0.103,0.043-0.012
				c0.134-0.062,0.12-0.048-0.007-0.003c0.103-0.037,0.213-0.068,0.321-0.089c0.171-0.033-0.215,0.003,0.076-0.013
				c0.116-0.006,0.232-0.004,0.349-0.004c0.18,0,0.553,0.069,0.712,0.215c-0.154-0.142-0.089-0.034,0.025,0.036
				c0.06,0.037-0.038-0.179,0.003,0.03c-0.024-0.12-0.067-0.186-0.037-0.021c-0.067-0.364-0.09,0.159-0.029-0.131
				c-0.396,1.886,2.495,2.692,2.893,0.799c1.039-4.948-7.98-5.35-7.272-0.157c0.11,0.804,1.139,1.243,1.845,1.049
				C1330.37,1080.415,1330.662,1079.613,1330.552,1078.806L1330.552,1078.806z"/>
			<path fill="#FFFFFF" d="M1206.275,1455.419c0-1.791,0-3.581,0-5.372c0-1.933-3-1.936-3,0c0,1.791,0,3.581,0,5.372
				C1203.275,1457.352,1206.275,1457.355,1206.275,1455.419L1206.275,1455.419z"/>
			<path fill="#FFFFFF" d="M1820.2,1133.093c0,1.791,0,3.581,0,5.372c0,1.933,3,1.936,3,0c0-1.791,0-3.581,0-5.372
				C1823.199,1131.16,1820.2,1131.157,1820.2,1133.093L1820.2,1133.093z"/>
			<path fill="#FFFFFF" d="M1748.096,1482.28c0-1.791,0-3.581,0-5.372c0-1.933-3-1.936-3,0c0,1.791,0,3.581,0,5.372
				C1745.096,1484.213,1748.096,1484.216,1748.096,1482.28L1748.096,1482.28z"/>
			<g>
				<g>
					<path fill="#FFFFFF" d="M2527.534,684.943c1.932,0,1.935-3.002,0-3.002C2525.603,681.942,2525.6,684.943,2527.534,684.943
						L2527.534,684.943z"/>
				</g>
			</g>
			<g>
				<g>
					<path fill="#FFFFFF" d="M2652.719,145.516c1.932,0,1.935-3.002,0-3.002C2650.787,142.514,2650.784,145.516,2652.719,145.516
						L2652.719,145.516z"/>
				</g>
			</g>
			<path fill="#FFFFFF" d="M2749.885,529.054c-1.265-1.266-2.529-2.532-3.793-3.799c-1.367-1.369-3.489,0.755-2.121,2.124
				c1.264,1.266,2.529,2.533,3.793,3.799C2749.131,532.547,2751.252,530.423,2749.885,529.054L2749.885,529.054z"/>
			<path fill="#FFFFFF" d="M2794.65,827.977c0-2.649,0-5.298,0-7.947c0-1.933-3-1.936-3,0c0,2.649,0,5.298,0,7.947
				C2791.65,829.909,2794.65,829.913,2794.65,827.977L2794.65,827.977z"/>
			<g>
				<g>
					<path fill="#FFFFFF" d="M2547.129,1210.948c1.932,0,1.935-3.002,0-3.002
						C2545.198,1207.946,2545.195,1210.948,2547.129,1210.948L2547.129,1210.948z"/>
				</g>
			</g>
		</g>
	</g>
	<path opacity="0.4" fill="#FFFFFF" d="M1005.468,428.164l645.347-147.258c0.269-0.061,0.537,0.107,0.599,0.376
		c0.061,0.267-0.104,0.533-0.37,0.597l-643.28,156.04c-2.69,0.652-5.399-0.999-6.051-3.689c-0.652-2.69,0.999-5.399,3.689-6.051
		C1005.415,428.177,1005.455,428.168,1005.468,428.164z"/>
	<path opacity="0.4" fill="#FFFFFF" d="M1853.537,941.981l303.002-68.071c0.126-0.028,0.252,0.049,0.281,0.174
		c0.029,0.123-0.049,0.246-0.174,0.276l-302.031,72.131c-1.263,0.302-2.535-0.462-2.841-1.705s0.469-2.496,1.732-2.797
		C1853.512,941.987,1853.531,941.982,1853.537,941.981z"/>
	<path opacity="0.4" fill="#FFFFFF" d="M1668.984,920.991l156.671-34.643c0.126-0.028,0.252,0.049,0.281,0.174
		c0.029,0.123-0.049,0.246-0.174,0.276l-155.701,38.702c-1.263,0.302-2.535-0.462-2.841-1.705c-0.306-1.243,0.469-2.496,1.732-2.797
		C1668.959,920.997,1668.977,920.993,1668.984,920.991z"/>
	<path opacity="0.4" fill="#FFFFFF" d="M1743.578,824.992l241.819-53.471c0.195-0.044,0.389,0.076,0.434,0.268
		c0.044,0.19-0.076,0.38-0.268,0.426l-240.321,59.736c-1.949,0.465-3.912-0.713-4.385-2.632c-0.473-1.919,0.724-3.852,2.673-4.317
		C1743.539,825.001,1743.568,824.994,1743.578,824.992z"/>
	<path opacity="0.4" fill="#FFFFFF" d="M1766.982,419.824l952.352-232.325c0.268-0.065,0.539,0.099,0.604,0.367
		c0.065,0.267-0.097,0.536-0.363,0.603l-950.174,241.08c-2.682,0.681-5.409-0.942-6.089-3.625c-0.681-2.682,0.942-5.409,3.625-6.089
		L1766.982,419.824z"/>
	<g>
		<path opacity="0.05" fill="#F2EF47" d="M0,0v1176.393c27.185,2.302,54.686,3.493,82.466,3.493
			c532.748,0,964.626-431.878,964.626-964.626c0-73.996-8.344-146.042-24.121-215.26H0z"/>
		<path opacity="0.05" fill="#F2EF4D" d="M0,0v993.201c27.102,2.84,54.612,4.307,82.466,4.307
			c432.024,0,782.249-350.225,782.249-782.249c0-74.659-10.465-146.872-29.998-215.26H0z"/>
		<path opacity="0.05" fill="#F2EF58" d="M0,0v786.244c26.934,3.856,54.466,5.859,82.466,5.859
			c318.582,0,576.843-258.261,576.843-576.843c0-76.095-14.744-148.745-41.515-215.26H0z"/>
		<path fill="#F2EFAC" d="M0,0v603.675c26.604,5.621,54.188,8.584,82.466,8.584c219.257,0,397-177.743,397-397
			c0-79.343-23.281-153.245-63.376-215.26H0z"/>
	</g>
	<g opacity="0.15">
		
			<linearGradient id="SVGID_2_" gradientUnits="userSpaceOnUse" x1="1588.13" y1="911.7396" x2="1588.13" y2="2114.6746" gradientTransform="matrix(-0.9848 0.1739 0.1739 0.9848 3514.407 -250.3391)">
			<stop  offset="0" style="stop-color:#FEEAC2"/>
			<stop  offset="0.5068" style="stop-color:#FE62A6"/>
			<stop  offset="1" style="stop-color:#FEEAC2"/>
		</linearGradient>
		<path fill="url(#SVGID_2_)" d="M2850,650.365c-31.271,35.91-44.482,85.604-33.162,130.821
			c-69.203-13.568-145.799,28.13-167.478,91.175c-50.285-14.956-104.383,26.189-116.658,74.259s6.285,98.233,29.905,142.399
			c-58.34-42.175-142.01-51.182-209.125-22.512s-114.739,93.764-119.03,162.694c-32.449-38.425-104.435-37.829-136.237,1.128
			c-19.529-44.37-93.431-55.437-126.85-18.996c7.717-67.119-78.148-107.018-149.316-117.733
			c-54.871-8.261-114.04-10.781-163.1,13.73c-49.06,24.511-81.515,84.324-56.258,130.66
			c-63.038-20.621-135.689,48.104-113.016,106.909c-0.223-0.154-0.446-0.308-0.67-0.461c-32.025-21.908-75.514,1.257-75.514,40.059
			v29.759c0,268.67,217.8,385.745,486.47,385.745H2850V650.365z"/>
	</g>
	<g opacity="0.5">
		
			<linearGradient id="SVGID_3_" gradientUnits="userSpaceOnUse" x1="2127.0103" y1="1720.6543" x2="-756.2358" y2="1082.8612" gradientTransform="matrix(0.9661 0.2583 -0.2583 0.9661 482.5484 -331.2546)">
			<stop  offset="0" style="stop-color:#FEEAC2"/>
			<stop  offset="1" style="stop-color:#FE62BB"/>
		</linearGradient>
		<path fill="url(#SVGID_3_)" d="M2850,1272.178c-9.184-8.918-19.753-16.241-31.718-21.436
			c-111.819-48.547-260.821,19.654-287.42,131.557c-122.366-59.005-292.069,10.989-326.672,134.738
			c-71.545-93.513-241.101-97.934-315.609-8.231c-4.744-37.642-36.583-71.258-75.941-80.181
			c-39.358-8.922-83.463,7.478-105.197,39.118c10.444-52.592-41.8-108.338-98.881-105.509
			c-24.727-68.271-85.224-124.617-158.208-147.352c-72.985-22.735-156.69-11.309-218.9,29.88
			c-17.098-29.629-54.981-47.54-90.284-42.687s-65.52,32.126-72.015,64.999c1.338-56.285-82.035-96.092-129.089-61.635
			c8.478-56.441-33.712-112.618-88.748-137.744c-55.036-25.126-119.519-24.224-179.09-13.002
			c12.63-68.907-13.198-143.447-66.833-192.885c-53.635-49.438-133.565-72.381-206.833-59.367
			c50.366-45.108,59.262-125.402,19.974-180.289c-39.287-54.887-122.222-78.028-186.216-51.96
			C212.837,476.09,102.975,421.975,0,427.913V1800h2850V1272.178z"/>
	</g>
	<g opacity="0.5">
		
			<linearGradient id="SVGID_4_" gradientUnits="userSpaceOnUse" x1="1571.4094" y1="1599.4059" x2="-1310.9403" y2="961.8111" gradientTransform="matrix(0.9661 0.2583 -0.2583 0.9661 482.5484 -331.2546)">
			<stop  offset="0" style="stop-color:#FEEAC2"/>
			<stop  offset="1" style="stop-color:#FE62BB"/>
		</linearGradient>
		<path fill="url(#SVGID_4_)" d="M2033.28,1800c-4.5-53.452-30.011-104.726-76.009-124.697
			c-109.513-47.546-254.671,16.897-285.6,124.697H2033.28z"/>
	</g>
	<g opacity="0.5">
		
			<linearGradient id="SVGID_5_" gradientUnits="userSpaceOnUse" x1="1535.2686" y1="1762.9697" x2="-1346.843" y2="1125.4277" gradientTransform="matrix(0.9661 0.2583 -0.2583 0.9661 482.5484 -331.2546)">
			<stop  offset="0" style="stop-color:#FEEAC2"/>
			<stop  offset="1" style="stop-color:#FE62BB"/>
		</linearGradient>
		<path fill="url(#SVGID_5_)" d="M1653.876,1800c-52.585-20.057-112.032-18.238-165.131,0H1653.876z"/>
	</g>
	<g opacity="0.5">
		
			<linearGradient id="SVGID_6_" gradientUnits="userSpaceOnUse" x1="1424.2073" y1="2265.9648" x2="-1458.8374" y2="1628.2164" gradientTransform="matrix(0.9661 0.2583 -0.2583 0.9661 482.5484 -331.2546)">
			<stop  offset="0" style="stop-color:#FEEAC2"/>
			<stop  offset="1" style="stop-color:#FE62BB"/>
		</linearGradient>
		<path fill="url(#SVGID_6_)" d="M798.864,1800c-15.357-9.032-33.086-14.108-51.313-13.204
			c-24.727-68.271-85.224-124.617-158.208-147.352c-72.985-22.735-156.689-11.309-218.9,29.881
			c-17.098-29.629-54.981-47.54-90.284-42.687c-35.303,4.853-65.52,32.126-72.015,64.999c1.338-56.285-82.035-96.092-129.089-61.635
			C87.029,1576.924,50.19,1524.083,0,1497.077V1800H798.864z"/>
	</g>
	<g>
		<circle opacity="0.2" fill="#F25CCC" cx="964.733" cy="1253.416" r="442.219"/>
		<circle opacity="0.2" fill="#F25CCC" cx="964.733" cy="1253.416" r="381.926"/>
		<radialGradient id="SVGID_7_" cx="834.5567" cy="1139.512" r="524.2878" gradientUnits="userSpaceOnUse">
			<stop  offset="0.0013" style="stop-color:#C73CA0"/>
			<stop  offset="0.2644" style="stop-color:#C43B9E"/>
			<stop  offset="0.4299" style="stop-color:#BC3998"/>
			<stop  offset="0.5684" style="stop-color:#AD358D"/>
			<stop  offset="0.6921" style="stop-color:#982F7E"/>
			<stop  offset="0.8059" style="stop-color:#7E286A"/>
			<stop  offset="0.9108" style="stop-color:#5D1F53"/>
			<stop  offset="0.9954" style="stop-color:#3D163B"/>
		</radialGradient>
		<circle fill="url(#SVGID_7_)" cx="964.733" cy="1253.416" r="358.314"/>
		<radialGradient id="SVGID_8_" cx="758.29" cy="1070.6107" r="362.5473" gradientUnits="userSpaceOnUse">
			<stop  offset="0.0061" style="stop-color:#B43C8F"/>
			<stop  offset="0.2813" style="stop-color:#B13B8D"/>
			<stop  offset="0.4543" style="stop-color:#A93887"/>
			<stop  offset="0.5991" style="stop-color:#9A347D"/>
			<stop  offset="0.7284" style="stop-color:#852D6E"/>
			<stop  offset="0.8474" style="stop-color:#6B255B"/>
			<stop  offset="0.9572" style="stop-color:#4A1A44"/>
			<stop  offset="0.9954" style="stop-color:#3D163B"/>
		</radialGradient>
		<path fill="url(#SVGID_8_)" d="M883.186,904.426c-2.437,1.968-4.865,3.959-7.272,5.993
			c-77.62,64.081-120.942,146.214-180.511,226.541c-24.069,31.876-51.891,61.405-86.842,77.102
			c-1.412,12.925-2.143,26.054-2.143,39.355c0,56.032,12.866,109.058,35.797,156.291c45.07-36.356,75.327-89.951,106.439-140.974
			c32.492-53.251,59.569-104.696,88.45-158.85c50.886-95.873,141.548-173.052,246.374-194.635
			c-37.162-13.049-77.124-20.147-118.745-20.147C936.681,895.102,909.382,898.329,883.186,904.426z"/>
		<radialGradient id="SVGID_9_" cx="978.3394" cy="1306.2327" r="355.4305" gradientUnits="userSpaceOnUse">
			<stop  offset="0.0061" style="stop-color:#B43C8F"/>
			<stop  offset="0.2813" style="stop-color:#B13B8D"/>
			<stop  offset="0.4543" style="stop-color:#A93887"/>
			<stop  offset="0.5991" style="stop-color:#9A347D"/>
			<stop  offset="0.7284" style="stop-color:#852D6E"/>
			<stop  offset="0.8474" style="stop-color:#6B255B"/>
			<stop  offset="0.9572" style="stop-color:#4A1A44"/>
			<stop  offset="0.9954" style="stop-color:#3D163B"/>
		</radialGradient>
		<path fill="url(#SVGID_9_)" d="M1307.308,1148.114c-25.348,6.656-49.921,17.013-73.079,33.974
			c-37.907,27.979-68.594,56.861-90.256,97.476c-18.051,34.297-27.077,70.399-47.835,104.697c-2.708,5.415-3.61,12.636-6.318,18.051
			c-41.517,73.107-110.112,117.332-184.121,149.824c-27.778,13.021-57.23,20.199-88.347,27.956
			c44.953,20.317,94.842,31.64,147.381,31.64c9.448,0,18.81-0.368,28.074-1.086c34.128-17.323,66.38-38.308,95.209-65.73
			c64.081-62.276,93.866-142.604,149.824-213.906c21.029-27.338,49.681-63.922,85.107-69.18c0.064-2.797,0.101-5.601,0.101-8.413
			C1323.047,1216.767,1317.534,1181.409,1307.308,1148.114z"/>
		<radialGradient id="SVGID_10_" cx="856.3405" cy="1171.2933" r="422.9132" gradientUnits="userSpaceOnUse">
			<stop  offset="0.0061" style="stop-color:#B43C8F"/>
			<stop  offset="0.2813" style="stop-color:#B13B8D"/>
			<stop  offset="0.4543" style="stop-color:#A93887"/>
			<stop  offset="0.5991" style="stop-color:#9A347D"/>
			<stop  offset="0.7284" style="stop-color:#852D6E"/>
			<stop  offset="0.8474" style="stop-color:#6B255B"/>
			<stop  offset="0.9572" style="stop-color:#4A1A44"/>
			<stop  offset="0.9954" style="stop-color:#3D163B"/>
		</radialGradient>
		<path fill="url(#SVGID_10_)" d="M1191.598,976.071c-57.085,18.826-114.366,36.921-169.47,63.413
			c-59.569,28.882-107.404,76.717-132.676,138.091c-18.051,45.128-36.102,88.45-62.276,130.87
			c-38.519,63.907-83.833,127.812-156.529,149.714c24.595,35.262,55.374,65.887,90.758,90.319
			c86.472-40.589,166.378-90.703,225.524-172.341c18.954-27.077,33.395-52.348,38.81-83.938
			c5.415-28.882,10.831-55.056,18.954-82.133c6.318-19.856,15.343-38.81,27.979-56.861c34.297-49.641,75.815-88.45,131.773-106.502
			c15.258-4.904,32.817-6.841,49.503-4.83C1236.011,1017.396,1215.047,995.274,1191.598,976.071z"/>
		<g>
			<path fill="#9283F1" d="M1640.752,1070.517c-13.851-42.066-155.815-35.737-362.076,10.05c4.704,8.788,9.12,17.789,13.278,26.63
				c97.084-11.523,162.342-5.973,171.458,21.714c18.641,56.613-220.43,186.203-467.361,267.511
				c-246.931,81.309-495.864,112.407-514.505,55.794c-9.574-29.075,45.02-76.327,132.327-125.753
				c-2.003-9.379-3.285-18.759-4.699-28.581c-206.458,89.437-339.726,175.71-325.329,219.432
				c20.86,63.353,341.525,14.691,716.225-108.689S1661.612,1133.869,1640.752,1070.517z"/>
			<path fill="#C2A1F1" d="M1640.752,1063.081c-13.851-42.066-159.553-34.91-365.815,10.877c4.704,8.788,9.609,17.342,13.766,26.184
				c97.084-11.523,165.592-6.354,174.709,21.333c18.641,56.613-220.43,186.203-467.361,267.511
				c-246.931,81.309-495.864,112.407-514.505,55.794c-9.574-29.075,43.649-75.859,130.955-125.286
				c-1.559-9.481-3.096-18.514-4.137-28.522c-206.458,89.437-338.917,175.184-324.52,218.907
				c20.86,63.353,341.525,14.691,716.225-108.689S1661.612,1126.433,1640.752,1063.081z"/>
		</g>
	</g>
	<g opacity="0.5">
		
			<linearGradient id="SVGID_11_" gradientUnits="userSpaceOnUse" x1="2363.4697" y1="1451.0498" x2="2363.4697" y2="2653.3157" gradientTransform="matrix(0.9848 0.1739 -0.1739 0.9848 312.8891 -250.3391)">
			<stop  offset="0" style="stop-color:#FEEAC2"/>
			<stop  offset="0.5068" style="stop-color:#FE62A6"/>
			<stop  offset="1" style="stop-color:#FEEAC2"/>
		</linearGradient>
		<path fill="url(#SVGID_11_)" d="M2850,1412.011c-2.37-1.238-4.75-2.444-7.147-3.585c-72.21-34.345-160.612-24.272-235.106,5.331
			c-102.032,40.546-193.334,130.065-186.84,233.71c-103.563-49.945-248.062,4.977-285.019,108.331
			c-37.722-41.26-99.338-62.085-156.468-52.882c-56.489,9.1-106.553,47.239-127.711,97.083H2850V1412.011z"/>
	</g>
	<g opacity="0.5">
		
			<linearGradient id="SVGID_12_" gradientUnits="userSpaceOnUse" x1="881.8156" y1="1450.2448" x2="881.8156" y2="2653.1919" gradientTransform="matrix(0.9848 0.1739 -0.1739 0.9848 312.8891 -250.3391)">
			<stop  offset="0" style="stop-color:#FEEAC2"/>
			<stop  offset="0.5068" style="stop-color:#FE62A6"/>
			<stop  offset="1" style="stop-color:#FEEAC2"/>
		</linearGradient>
		<path fill="url(#SVGID_12_)" d="M1849.653,1800c-50.328-64.128-158.655-79.857-227.025-32.497
			c22.673-58.805-49.978-127.53-113.016-106.909c25.257-46.336-7.198-106.149-56.258-130.66
			c-49.06-24.511-108.229-21.992-163.1-13.73c-71.168,10.715-157.033,50.614-149.316,117.733
			c-33.419-36.441-107.321-25.375-126.85,18.996c-31.802-38.957-103.788-39.553-136.237-1.128
			c-4.292-68.93-51.916-134.024-119.03-162.694c-67.114-28.67-150.785-19.663-209.125,22.512
			c23.62-44.166,42.18-94.329,29.905-142.399c-12.275-48.07-66.373-89.214-116.658-74.259
			c-21.68-63.045-98.275-104.743-167.478-91.175c13.472-53.814-7.791-113.976-52.905-149.688
			c-45.114-35.712-112.002-45.332-166.425-23.934C77.538,980.487,44.79,936.216,0,910.354V1800H1849.653z"/>
	</g>
	<g>
		
			<ellipse transform="matrix(0.8352 -0.5499 0.5499 0.8352 67.5465 1367.0552)" opacity="0.3" fill="#CA554E" cx="2314.843" cy="570.819" rx="191.348" ry="193.298"/>
		<radialGradient id="SVGID_13_" cx="2229.1316" cy="515.4207" r="264.5689" gradientUnits="userSpaceOnUse">
			<stop  offset="0.0036" style="stop-color:#E66119"/>
			<stop  offset="0.2773" style="stop-color:#E35F1A"/>
			<stop  offset="0.4494" style="stop-color:#DB5A1C"/>
			<stop  offset="0.5934" style="stop-color:#CC5120"/>
			<stop  offset="0.722" style="stop-color:#B74526"/>
			<stop  offset="0.8403" style="stop-color:#9D342D"/>
			<stop  offset="0.9495" style="stop-color:#7C2036"/>
			<stop  offset="0.9985" style="stop-color:#6B163B"/>
		</radialGradient>
		<path fill="url(#SVGID_13_)" d="M2178.317,660.712c-50.152-76.17-29.683-178.164,45.718-227.81s177.183-28.145,227.335,48.025
			c50.152,76.17,29.683,178.164-45.718,227.81S2228.469,736.881,2178.317,660.712z"/>
		<g>
			<linearGradient id="SVGID_14_" gradientUnits="userSpaceOnUse" x1="2169.1626" y1="692.9352" x2="2290.3652" y2="606.3619">
				<stop  offset="7.630814e-04" style="stop-color:#C73C19"/>
				<stop  offset="0.9985" style="stop-color:#6B163B"/>
			</linearGradient>
			<path fill="url(#SVGID_14_)" d="M2324.156,651.534L2324.156,651.534c-4.886-7.421-14.803-9.516-22.149-4.679l-12.514,8.24
				c-6.444,4.243-15.143,2.405-19.429-4.104l0,0c-4.286-6.51-2.537-15.227,3.907-19.47l35.472-23.355
				c5.607-3.692,7.13-11.277,3.4-16.941v0c-3.73-5.664-11.299-7.263-16.906-3.571l-78.644,51.781
				c-6.277,4.133-14.75,2.343-18.925-3.998l0,0c-4.175-6.341-2.471-14.831,3.806-18.964l25.917-17.065
				c6.277-4.133,7.981-12.623,3.806-18.964l0,0c-4.175-6.341-12.648-8.131-18.925-3.998l-56.145,36.968
				c4.52,16.368,11.636,32.334,21.491,47.301c17.935,27.24,42.476,47.484,70.049,59.987l71.335-46.969
				C2327.048,668.892,2329.042,658.955,2324.156,651.534z"/>
			<linearGradient id="SVGID_15_" gradientUnits="userSpaceOnUse" x1="2254.8604" y1="494.9883" x2="2472.8599" y2="494.9883">
				<stop  offset="7.630814e-04" style="stop-color:#C73C19"/>
				<stop  offset="0.9985" style="stop-color:#6B163B"/>
			</linearGradient>
			<path fill="url(#SVGID_15_)" d="M2257.536,521.706L2257.536,521.706c4.886,7.421,14.803,9.516,22.149,4.679l77.432-50.983
				c5.607-3.692,13.177-2.093,16.906,3.571l2.016,3.062c3.73,5.664,2.208,13.249-3.4,16.941l-41.018,27.007
				c-5.607,3.692-7.129,11.277-3.4,16.941v0c3.73,5.664,11.299,7.263,16.906,3.571l81.814-53.868
				c5.607-3.692,13.177-2.093,16.906,3.571l1.613,2.449c3.73,5.664,2.208,13.249-3.4,16.941l-42.919,28.259
				c-6.277,4.133-7.981,12.623-3.806,18.964l0,0c4.175,6.341,12.648,8.131,18.925,3.998l58.599-38.583
				c-4.52-16.368-11.636-32.334-21.49-47.301c-17.936-27.24-42.476-47.484-70.05-59.987l-119.33,78.57
				C2254.644,504.347,2252.649,514.285,2257.536,521.706z"/>
		</g>
	</g>
	<g>
		
			<ellipse transform="matrix(0.8352 -0.5499 0.5499 0.8352 -30.6432 855.3147)" opacity="0.3" fill="#4FABA6" cx="1411.857" cy="478.789" rx="91.575" ry="92.508"/>
		<g>
			<radialGradient id="SVGID_16_" cx="1370.838" cy="452.276" r="126.6167" gradientUnits="userSpaceOnUse">
				<stop  offset="0.0054" style="stop-color:#61C9A6"/>
				<stop  offset="0.2949" style="stop-color:#60C6A6"/>
				<stop  offset="0.4768" style="stop-color:#5CBEA7"/>
				<stop  offset="0.6291" style="stop-color:#56AFA8"/>
				<stop  offset="0.7651" style="stop-color:#4D9AAA"/>
				<stop  offset="0.8889" style="stop-color:#4180AD"/>
				<stop  offset="1" style="stop-color:#3461B0"/>
			</radialGradient>
			<path fill="url(#SVGID_16_)" d="M1346.519,521.809c-24.002-36.453-14.206-85.265,21.88-109.025s84.796-13.469,108.797,22.984
				c24.002,36.453,14.206,85.265-21.88,109.025C1419.231,568.552,1370.521,558.262,1346.519,521.809z"/>
			<radialGradient id="SVGID_17_" cx="1376.6798" cy="447.706" r="95.2638" gradientUnits="userSpaceOnUse">
				<stop  offset="0.0061" style="stop-color:#4FB7A6"/>
				<stop  offset="0.3144" style="stop-color:#4EB4A6"/>
				<stop  offset="0.5082" style="stop-color:#4BACA7"/>
				<stop  offset="0.6704" style="stop-color:#479DA9"/>
				<stop  offset="0.8151" style="stop-color:#4088AB"/>
				<stop  offset="0.947" style="stop-color:#386EAE"/>
				<stop  offset="1" style="stop-color:#3461B0"/>
			</radialGradient>
			<path fill="url(#SVGID_17_)" d="M1393.675,461.084c0-24.767,27.359-42.33,54.952-51.567c-10.289-5.562-21.656-8.749-33.215-9.393
				c-24.584,12.223-47.783,31.518-59.134,56.285c-7.012,15.193,15.193,19.867,26.88,26.88c4.675,3.506,2.337,8.181,0,11.687
				c-7.064,14.129-17.688,25.588-29.031,36.62c4.138,4.556,8.715,8.552,13.63,11.947c20.37-16.722,39.264-35.003,51.63-59.085
				C1427.567,469.265,1393.675,466.928,1393.675,461.084z"/>
			<radialGradient id="SVGID_18_" cx="1412.4097" cy="467.3885" r="90.7979" gradientUnits="userSpaceOnUse">
				<stop  offset="0.0071" style="stop-color:#4FA2A6"/>
				<stop  offset="0.3454" style="stop-color:#4E9FA6"/>
				<stop  offset="0.558" style="stop-color:#4A97A8"/>
				<stop  offset="0.7359" style="stop-color:#4488AA"/>
				<stop  offset="0.8937" style="stop-color:#3C74AD"/>
				<stop  offset="1" style="stop-color:#3461B0"/>
			</radialGradient>
			<path fill="url(#SVGID_18_)" d="M1482.519,445.214c-1.545-3.219-3.304-6.379-5.323-9.445c-3.203-4.865-6.869-9.234-10.864-13.148
				c-13.802,6.474-25.741,16.591-34.091,29.115c-7.012,10.518,17.53,12.855,16.361,21.036
				c-5.326,33.732-32.227,58.024-58.171,81.583c17.721,5.213,37.101,4.168,54.565-3.861c11.486-16.962,21.787-34.855,31.655-53.18
				c5.843-10.518-1.169-21.036-4.675-30.386C1470.222,459.03,1475.715,451.132,1482.519,445.214z"/>
		</g>
	</g>
</g>
<g id="Layer_1">
</g>
</svg>
